<svg id="Capa_3" data-name="Capa 3" xmlns="http://www.w3.org/2000/svg" xmlns:xlink="http://www.w3.org/1999/xlink" viewBox="0 0 500 500"><defs><style>.cls-1{fill:#fff;}.cls-2{fill:url(#Degradado_sin_nombre_7);}.cls-3{fill:#4dbcc3;}.cls-4{fill:#42bccb;}.cls-5{fill:#43bccb;}.cls-6{fill:#e37db0;}</style><linearGradient id="Degradado_sin_nombre_7" x1="36.61" y1="463.39" x2="463.39" y2="36.61" gradientUnits="userSpaceOnUse"><stop offset="0" stop-color="#3d71b3"/><stop offset="1" stop-color="#5abeba"/></linearGradient></defs><path class="cls-1" d="M171.8,271.64c-2.28,3.55-4.46,7.18-8,9.67-8.62,6-17,5.22-24.5-2-5.81-5.59-8.42-12.8-9.64-20.59a48.93,48.93,0,0,1,3.64-27.35c1.76-2.69,3.34-5.48,5.65-7.78,8.64-8.62,20.93-8.08,28.75,1.32a36.41,36.41,0,0,1,7.86,17.93A48.26,48.26,0,0,1,171.8,271.64Z"/><rect class="cls-2" width="500" height="500" rx="125"/><path class="cls-1" d="M97.3,453.85c-5.81,1.52-11.67,2.51-17.7,1.6-7.23-1.61-13.95-4.31-19.2-9.72-6.91-7.14-13.79-14.38-15.22-24.88a53.78,53.78,0,0,1,.25-15.36q3.75-14.88,7.5-29.78a14.19,14.19,0,0,0,.19-2.27c1.62-6.9,1.57-13.92,1.54-20.93a105.92,105.92,0,0,0-2.14-18.45,57.88,57.88,0,0,0-3.11-12.81c-2.49-7-4.59-14.19-6.59-21.38-1.31-7.1-3.09-14.11-4.08-21.29a163.68,163.68,0,0,1-1.57-18.5c.22-5.08-.17-10.16,0-15.26A214.9,214.9,0,0,1,63.34,147c4.11-6.73,8.13-13.51,12.72-19.94A214.28,214.28,0,0,1,159,57.33c.45-.22.87-.5,1.31-.76,8.08-3.3,16.12-6.7,24.46-9.37a216.4,216.4,0,0,1,39.16-8.61A212.82,212.82,0,0,1,460.79,220.12a216.92,216.92,0,0,1,1.85,40.65A208,208,0,0,1,448.2,327.6c-.49,1.26-.89,2.55-1.34,3.83-3.95,8.54-7.85,17.1-12.64,25.23a206.67,206.67,0,0,1-24,33.19,6.45,6.45,0,0,0-.56.84A217.19,217.19,0,0,1,363.4,430.1c-.93.59-1.79,1.27-2.69,1.9-8.62,4.74-17.2,9.54-26.29,13.39a212.63,212.63,0,0,1-58.22,15.77,218.32,218.32,0,0,1-21.82,1.54c-1,0-2,.23-3,.35-9.06-.51-18.15-.59-27.18-1.8a242.42,242.42,0,0,1-43.53-10.15c-2.89-1-5.82-1.82-8.73-2.72a103.15,103.15,0,0,0-23.6-3.93,91.17,91.17,0,0,0-23,1.76,64.37,64.37,0,0,0-13.59,3C106.94,450.71,102.12,452.29,97.3,453.85Z"/><path class="cls-3" d="M396,256.81c0,11,0,21.93,0,32.9,0,5.88-1.95,9.14-6.82,10.26a27.64,27.64,0,0,1-12.6,0c-4.49-1.08-6.69-4.44-6.7-9.31,0-13.77,0-27.54,0-41.31,0-5.78,0-11.56,0-17.34-.07-9.12-7.32-15.82-17-15.81-8,0-15.08,7.32-15.1,15.77,0,19.3,0,38.6,0,57.9,0,5.51-2.06,9-6.76,10.09a27.49,27.49,0,0,1-12.85,0c-4.6-1.12-6.5-4.33-6.51-9.93,0-16,0-32-.05-48,0-4.58-.48-9.16-.67-13.74-.24-5.69-.35-11.4,1.75-16.84a12.09,12.09,0,0,1,13.62-7.8c4.27.64,8.53,1.34,12.79,2.06a21.94,21.94,0,0,0,10.77-1.08c7.35-2.46,14.79-4.29,22.67-3.74,11.59.8,20.58,8.11,23.09,19.24a33.43,33.43,0,0,1,.45,7.09C396.05,237.08,396,247,396,256.81Z"/><path class="cls-4" d="M246,234.27q0,31.34,0,62.69c0,4.11-.22,4.34-4.34,4.34-6.29,0-12.57,0-18.86,0-3.08,0-3.57-.5-3.58-3.56q0-63.59,0-127.18c0-3.24.47-3.7,3.68-3.71,6.38,0,12.75,0,19.12,0,3.54,0,4,.44,4,4Q246.06,202.54,246,234.27Z"/><path class="cls-5" d="M291.81,252.43v45.12c0,3.27-.42,3.73-3.62,3.74q-9.81,0-19.63,0c-3.14,0-3.67-.56-3.67-3.76q0-45.24,0-90.49c0-3.23.47-3.7,3.69-3.71q9.82,0,19.63,0c3.23,0,3.61.43,3.61,3.73Z"/><path class="cls-4" d="M196.41,221.75c-6.19-13.39-16.56-20.62-31.22-21.93a54.37,54.37,0,0,0-23.7,3.53,24.48,24.48,0,0,1-9.24,1.3c-4.34-.14-8.26-1.78-12.35-2.85A12.35,12.35,0,0,0,106.69,206h0c-2.12,1.89-2.75,4.33-2.75,7.08q0,24.79,0,49.59c0,5.59.08,11.18.11,16.77,0,15.62,0,31.25-.17,46.87a16.56,16.56,0,0,0,2.75,9.56c6.59,10.19,15.51,8.36,22.89,1.39a2.42,2.42,0,0,0,.58-1.87c.44-8.91.57-17.82.56-26.73h0a7,7,0,0,0,.24-1c.64-7,4.79-9.95,11.62-8.53,6.46,1.34,13,2.47,19.62,2.17a39.94,39.94,0,0,0,27.75-12.63h0c8.73-8.81,12.12-19.92,13-31.81A70.24,70.24,0,0,0,196.41,221.75Zm-61.23,8a40.48,40.48,0,0,1,5.62-6.53,16.11,16.11,0,0,1,14.6-4c7.84,1.63,12.43,7.12,15.39,13.93a45.71,45.71,0,0,1,1.15,34l-3,6.39a25.3,25.3,0,0,1-2.22,3.1c-8.07,9.56-19.37,10.68-28,1.4-6.2-6.69-8.54-15.12-9.06-24.06a47,47,0,0,1,2.86-18.75S132.56,233.27,135.18,229.72Z"/><path class="cls-6" d="M291.81,182.88a13.86,13.86,0,0,1-13.65,13.39,13.57,13.57,0,0,1-13.24-14c.1-7.47,5.9-13,13.52-13A13.45,13.45,0,0,1,291.81,182.88Z"/></svg>