<svg id="Capa_1" data-name="Capa 1" xmlns="http://www.w3.org/2000/svg" viewBox="0 0 237.8 250"><defs><style>.cls-1{fill:#674e37;}.cls-2{fill:#8d6f55;}.cls-3{fill:#fdd6ac;}.cls-4{fill:#f9be94;}.cls-5{fill:#2b2c2d;}.cls-6{fill:#dd4848;}.cls-7{fill:#c73737;}</style></defs><path class="cls-1" d="M51.44,240.18a9.3,9.3,0,0,1,2.83-1c1.49-.12,2.91.63,4.29,1.25,11,4.88,23.46,1.57,35.1-1.09a34.54,34.54,0,0,1,7.4-1.09,54.8,54.8,0,0,1,8.14,1,52.52,52.52,0,0,0,33.24-6.43c6.15-3.49,11.59.57,18.43-.47a5.59,5.59,0,0,1,2.93.08,7.89,7.89,0,0,1,2.41,2c3.82,3.9,9.18,5.49,14.36,5.49s10.27-1.42,15.28-2.88a12.34,12.34,0,0,1,3.63-.69,15,15,0,0,1,4,.86c12.17,3.58,32.84,2.23,37.95-13.31a22.37,22.37,0,0,0-2.75-19.28c-1-1.36-2.19-2.65-3.73-2.91a2.87,2.87,0,0,0-3.32,2.68c0,2.72,3.75,3.11,5.81,1.65,5.17-3.67,6-11.79,4.85-18.49a13.79,13.79,0,0,0-1.28-4.19c-2.38-4.39-7.82-4.87-12.41-4.86a8.84,8.84,0,0,0-4.76.92A3.9,3.9,0,0,0,222.2,184a3.72,3.72,0,0,0,1.67,1.68c3.6,1.95,8.32-.7,9.71-4.87s-.17-9.1-3.13-12.09a15.94,15.94,0,0,0-11.07-4.32c.9,3.27,5.3,3.87,7.62,1.63s2.81-6.08,2.38-9.47c-1-7.95-6.56-14.95-13.53-17-1.17-.35-2.88-.18-3,1.16a2.29,2.29,0,0,0,.31,1.22c1.92,3.76,7.29,4,10.06,1s3-8.2,1.29-12.09a18.15,18.15,0,0,0-8.56-8.46,6.75,6.75,0,0,0-3.9-1,3.18,3.18,0,0,0-2.77,2.81,3.59,3.59,0,0,0,2.68,3.41c2.49.77,5.24-.51,7-2.66a15.41,15.41,0,0,0,2.86-7.88c.65-5.61-.63-11.73-4.3-15.63s-10-4.82-13.87-1.21a5.93,5.93,0,0,0-2,3.77c-.11,1.5.72,3.14,2,3.43,2,.45,3.44-2,4.26-4.11,2.9-7.41,6.12-16.71-.14-23.47-3.22-3.48-8.12-4.07-12.6-4-2.65,0-3.85,0-3.67,3a3.41,3.41,0,0,0,4.62,2.74c1.9-.76,3.12-2.83,3.89-4.91,2.21-6,1.79-12.76.42-19-1-4.51-2.61-9.15-6-11.88s-8.85-2.57-11,1.38c-.76,1.37-.94,3.4.19,4.42a2.85,2.85,0,0,0,2.56.48c4.21-.94,6.48-6.63,5.57-11.32s-4.09-8.38-7.45-11.37c-2.41-2.14-5.13-4.12-8.2-4.44a6.78,6.78,0,0,0-7.3,4.86,3.73,3.73,0,0,0,.88,3.67c1.27,1,3.13.19,4.21-1.1,3-3.55,2.17-9.6-.67-13.29-6.26-8.13-20.85-7.11-25.47,2.35a8.7,8.7,0,0,0-.91,6.12c.6,2,2.77,3.51,4.49,2.58a4.4,4.4,0,0,0,1.34-1.31c3.31-4.59,2.21-11.83-1.25-15.88A15.06,15.06,0,0,0,136,8.36c-5.37,1.47-12.07,4-14.26,10.19a3.83,3.83,0,0,0-.09,2.95,2.85,2.85,0,0,0,1.81,1.3c7,2.11,4.48-8.46,2.11-11.91-3.06-4.43-11.54-8-15.46-3.18-1.53,1.85-1.56,5.24.33,6.62s4.57,0,5.39-2.27a7.05,7.05,0,0,0-1.55-6.73A12,12,0,0,0,108.51,2c-4.13-1.23-9-1.23-12.16,2s-2.82,10.3,1.27,11.69a3.69,3.69,0,0,0,4.8-3c.19-2-1.36-3.71-2.87-4.88C96,5.08,91.37,3.23,87.32,5c-4.67,2-7,8.43-5.9,13.88A8.1,8.1,0,0,0,84,23.79a3.41,3.41,0,0,0,4.78-.42c1-1.36.81-3.4.15-5a9.83,9.83,0,0,0-9.37-5.87c-3.8.13-7.36,2.26-10.18,5.09A15.11,15.11,0,0,0,65,25.32c-.56,3,.37,6.56,2.73,8.21a4.65,4.65,0,0,0,7-2.29c1.11-3.53-2.09-7-5.33-8A12.3,12.3,0,0,0,56.1,28.18a15.92,15.92,0,0,0-1.22,15.5,7.89,7.89,0,0,0,4,4.16,3.94,3.94,0,0,0,4.89-1.78,5.7,5.7,0,0,0-.27-4.88A8.89,8.89,0,0,0,54,36.49c-3.64.63-6.81,3.25-9.11,6.45-6,8.43-6.43,30.9,8.22,27.49a4.14,4.14,0,0,0,2.31-1.28,2.59,2.59,0,0,0,.4-2.7,3.12,3.12,0,0,0-1.42-1.22c-5.2-2.71-11.33-3.18-15.11,2.35C36.93,71,36.12,75.51,36,79.84a21.3,21.3,0,0,0,1.48,9.44c1.3,2.88,3.82,5.23,6.71,5.44a3.1,3.1,0,0,0,2.52-.78c1.22-1.25.78-3.59-.29-5A7,7,0,0,0,39,86.7,12.39,12.39,0,0,0,32.51,92c-2.61,4-3.85,9.25-2.45,13.91s5.78,8.25,10.14,7.48c1.4-.24,3-1.3,2.86-2.88s-1.8-2.37-3.23-2.5c-5.06-.48-10.25,2.84-12.41,8a15.61,15.61,0,0,0,2.37,15.74,4.62,4.62,0,0,0,3.54,1.94,2.44,2.44,0,0,0,2.06-3.11,3.12,3.12,0,0,0-.83-1.07c-4.46-4.06-11.73-2.23-15.35,2.77s-4.1,12.11-2.73,18.35c.51,2.32,1.34,4.72,3.1,6.07s4.63,1.06,5.54-1.09-.77-4.82-2.84-5.38-4.24.39-6,1.67c-5.39,3.82-8.89,10.74-9,17.85A23,23,0,0,0,15.52,188c2.14,1.68,4.85,2.88,7.35,2s4.14-4.61,2.5-6.88c-1.13-1.57-3.23-1.78-5-1.32-3.89,1-6.89,4.73-8.26,8.91a30.1,30.1,0,0,0-.7,13.2c.53,3.95,1.49,7.94,3.59,11.18s5.5,5.64,9.08,5.49c1.33-.06,2.9-.77,3.07-2.24a2.92,2.92,0,0,0-.31-1.51,4.21,4.21,0,0,0-5-2,8.08,8.08,0,0,0-4.27,4.1,15.9,15.9,0,0,0-.44,13.53C22.63,244.79,41.76,244.53,51.44,240.18Z" transform="translate(-6.1 0)"/><path class="cls-2" d="M53.17,240.82a1,1,0,0,1-.8-.39,1.32,1.32,0,0,1,0-1.74c4.24-4.51,8.37-9.54,9.8-15.76,1.08-4.67.07-10.63-3.2-13.92a20.25,20.25,0,0,1-3.29,4.13A5.58,5.58,0,0,1,52.39,215a3.73,3.73,0,0,1-3.56-2.43,6,6,0,0,1,.33-5.81c2-2.85,5.72-2.87,8.29-1.69a8,8,0,0,1,.82.43,20.39,20.39,0,0,0,1-12.37,7.47,7.47,0,0,1-4.72.58A5.71,5.71,0,0,1,50.68,190a4.86,4.86,0,0,1,.27-4.15,4.45,4.45,0,0,1,6.39-1.13,9.46,9.46,0,0,1,3.26,4.89l.32-.2c3.58-2.22,8.2-6.08,9.82-11.88,1-3.63.88-4.22-.21-6.1a9.07,9.07,0,0,1-1.43.64,6.28,6.28,0,0,1-7-1.69A6,6,0,0,1,61,165.72a4.48,4.48,0,0,1,2.13-3.28,4.33,4.33,0,0,1,4.62.49,9.21,9.21,0,0,1,2.72,3.6c.27.56.52,1.05.76,1.49a14,14,0,0,0,3.51-5.84,20.9,20.9,0,0,0,0-13.24,1.29,1.29,0,0,1,.63-1.6,1.08,1.08,0,0,1,1.44.71,23.66,23.66,0,0,1,0,15,16.37,16.37,0,0,1-4.39,7.08c1.37,2.39,1.73,3.69.47,8.18-1.46,5.21-5.21,9.81-10.86,13.31l-.71.42a23,23,0,0,1-1.14,14.79c4.22,3.86,5.54,11,4.21,16.72-1.57,6.83-5.94,12.18-10.42,16.94A1.09,1.09,0,0,1,53.17,240.82Zm.95-34.06a3.83,3.83,0,0,0-3.22,1.49,3.32,3.32,0,0,0-.1,3.12c.2.44.66,1.18,1.45,1.11a3.73,3.73,0,0,0,2-1.21,17.94,17.94,0,0,0,2.91-3.67l-.58-.29A6,6,0,0,0,54.12,206.76Zm.44-20.4a2,2,0,0,0-1.76.89,2.14,2.14,0,0,0-.07,1.84A3.47,3.47,0,0,0,55,191.24a5.73,5.73,0,0,0,3.61-.53,7.37,7.37,0,0,0-2.42-3.86A2.9,2.9,0,0,0,54.56,186.36Zm10.36-21.91a1.73,1.73,0,0,0-.85.21,2.1,2.1,0,0,0-.93,1.52,3.38,3.38,0,0,0,.59,2.56,4.31,4.31,0,0,0,4.71,1,5.65,5.65,0,0,0,.88-.37c-.26-.49-.55-1-.85-1.67a6.78,6.78,0,0,0-2-2.68A2.65,2.65,0,0,0,64.92,164.45Z" transform="translate(-6.1 0)"/><path class="cls-2" d="M89,241a1,1,0,0,1-.63-.22c-3.47-2.68-7.41-5.71-9.7-10.25-4.17-8.22-1.62-18.31,1.1-26.21-3.09-4.24-3.33-11.21-.68-20.19A14.8,14.8,0,0,1,81.49,179a24.42,24.42,0,0,1,6.84-18.62,1,1,0,0,1,1.56.12,1.32,1.32,0,0,1-.1,1.74,21.9,21.9,0,0,0-6.1,15,4.7,4.7,0,0,1,4.6.07c2,1.26,2.66,3.84,3,5.68.27,1.53.45,3.48-.61,5a4,4,0,0,1-5.72.57,9.28,9.28,0,0,1-2.76-5c-.07-.28-.13-.56-.19-.85a19.24,19.24,0,0,0-.8,2.27c-1.56,5.28-2.78,12.23-.38,16.79a7.75,7.75,0,0,1,1.28-1.85c1.26-1.31,3.42-2,5.08-.82a4,4,0,0,1,1.51,3.48,4.78,4.78,0,0,1-2.13,3.92,4.7,4.7,0,0,1-5-.36c-2.42,7.26-4.52,16.21-1,23.26,2,4,5.76,6.9,9,9.43a1.33,1.33,0,0,1,.28,1.72A1.08,1.08,0,0,1,89,241ZM82.38,203.7a2.87,2.87,0,0,0,3.14.51,2.3,2.3,0,0,0,.94-1.84,1.53,1.53,0,0,0-.49-1.28,2,2,0,0,0-2.37.55A6.35,6.35,0,0,0,82.38,203.7Zm1.43-23.76a20.72,20.72,0,0,0,.51,2.85,6.62,6.62,0,0,0,1.92,3.68,1.92,1.92,0,0,0,2.66-.08c.52-.73.36-2.06.2-3-.38-2.16-1-3.43-1.9-4A3,3,0,0,0,83.81,179.94Z" transform="translate(-6.1 0)"/><path class="cls-2" d="M185.17,236.77a1,1,0,0,1-.84-.43,1.34,1.34,0,0,1,.11-1.74c2.67-2.55,3.58-7.42,2.17-11.57a16.19,16.19,0,0,0-6.82-8.33,8,8,0,0,1-3.25,3.72,4.18,4.18,0,0,1-3.65,0,3.66,3.66,0,0,1-1.94-2.31,4.23,4.23,0,0,1,.32-3.09,4.61,4.61,0,0,1,2.85-2.4,6.83,6.83,0,0,1,4.64.71,30.19,30.19,0,0,0,.3-19.71c-.08-.26-.17-.5-.26-.74a6.87,6.87,0,0,1-5.78,3.16,5.6,5.6,0,0,1-4.21-2.7,5.74,5.74,0,0,1-.76-4.53,5.1,5.1,0,0,1,2.69-3.28,5.83,5.83,0,0,1,5.2,0,8.21,8.21,0,0,1,2.51,2.07,17.66,17.66,0,0,0-.11-5c-1.64-11.09-9.73-21.38-21.65-27.54a1.29,1.29,0,0,1-.54-1.64,1.06,1.06,0,0,1,1.47-.6c12.59,6.5,21.15,17.48,22.91,29.38a17.45,17.45,0,0,1-.41,8.07,21.65,21.65,0,0,1,1,2.5,33,33,0,0,1-.39,21.7,18.68,18.68,0,0,1,7.93,9.69c1.76,5.18.61,11.07-2.79,14.32A1,1,0,0,1,185.17,236.77ZM175.42,213a3.33,3.33,0,0,0-.78.09,2.4,2.4,0,0,0-1.43,1.21,1.5,1.5,0,0,0-.15,1.11,1.34,1.34,0,0,0,.72.81,2.12,2.12,0,0,0,1.84,0,5.48,5.48,0,0,0,2.19-2.58A5.86,5.86,0,0,0,175.42,213Zm-2.07-27.53a3.82,3.82,0,0,0-1.7.39,2.7,2.7,0,0,0-1.47,1.73,3.1,3.1,0,0,0,.44,2.4,3.39,3.39,0,0,0,2.52,1.65,5.09,5.09,0,0,0,4.47-3.16A6.85,6.85,0,0,0,175,185.8,3.54,3.54,0,0,0,173.35,185.42Z" transform="translate(-6.1 0)"/><path class="cls-2" d="M209.89,228.1a1,1,0,0,1-.66-.23,1.34,1.34,0,0,1-.24-1.73c4.66-7.09,3.9-17.8-1.66-24-.16.23-.32.45-.49.67a5.73,5.73,0,0,1-4,2.35,3,3,0,0,1-2.38-1,3.69,3.69,0,0,1-.63-3.51,4.28,4.28,0,0,1,3.11-3.08,5.15,5.15,0,0,1,3.76.92,12.5,12.5,0,0,0,.49-7.55,11.18,11.18,0,0,0-4.83-6.67,8.16,8.16,0,0,1-1.69,3.92,4.73,4.73,0,0,1-4,1.68,3.65,3.65,0,0,1-2.87-1.85,4.58,4.58,0,0,1-.45-3.26,5.25,5.25,0,0,1,2.14-3.29,6.15,6.15,0,0,1,4.93-.67A29.27,29.27,0,0,0,195.43,165a17.5,17.5,0,0,0-1.55-1.95,9.77,9.77,0,0,1-2,4,5.93,5.93,0,0,1-4.6,2.09,4.44,4.44,0,0,1-3.45-1.76,5.33,5.33,0,0,1-.56-5.25,6.31,6.31,0,0,1,5.08-4.24,7.1,7.1,0,0,1,3.85.86v-.07c.42-12.14-6.18-24.2-16.06-29.33-2.46-1.27-7.21-3.12-11.44-1.19a1.07,1.07,0,0,1-1.45-.68,1.29,1.29,0,0,1,.61-1.61c3.71-1.7,8.41-1.26,13.21,1.24,10.68,5.53,17.81,18.55,17.35,31.66,0,.51,0,1-.1,1.47a17.79,17.79,0,0,1,2.84,3.27,32,32,0,0,1,5.41,17.63v.51a13.38,13.38,0,0,1,6.73,8.63,15.18,15.18,0,0,1-.81,9.76l.21.23c6.46,7,7.38,19.29,2.05,27.39A1.07,1.07,0,0,1,209.89,228.1Zm-6.19-28.16-.4,0a2,2,0,0,0-1.36,1.41,1.08,1.08,0,0,0,.11,1,.8.8,0,0,0,.73.3,3.73,3.73,0,0,0,2.38-1.5,6.51,6.51,0,0,0,.43-.6A3.5,3.5,0,0,0,203.7,199.94ZM198.56,183a3.47,3.47,0,0,0-2,.55,2.84,2.84,0,0,0-1.12,1.72,1.91,1.91,0,0,0,.16,1.36,1.49,1.49,0,0,0,1.2.72,2.7,2.7,0,0,0,2.22-.9,6.16,6.16,0,0,0,1.21-3.19A6.07,6.07,0,0,0,198.56,183Zm-9.7-22.72h-.33a4.16,4.16,0,0,0-3.19,2.74,2.78,2.78,0,0,0,.21,2.68,2.29,2.29,0,0,0,1.83.88,3.78,3.78,0,0,0,2.92-1.32,8,8,0,0,0,1.66-3.95A5.62,5.62,0,0,0,188.86,160.29Z" transform="translate(-6.1 0)"/><path class="cls-2" d="M40.18,236.93a1.1,1.1,0,0,1-1-.61,21.53,21.53,0,0,1-1.4-15.83,17.67,17.67,0,0,1-1.67-2.26c-6-9.57-6.41-23.2-.89-33.15.33-.6.67-1.15,1-1.66a23.23,23.23,0,0,1-4-15.17,14,14,0,0,1,2.83-7.76c2-2.39,5-3.31,7.49-2.3a1.29,1.29,0,0,1,.65,1.6,1.08,1.08,0,0,1-1.42.72,4.62,4.62,0,0,0-5.09,1.67,11.64,11.64,0,0,0-2.25,6.32,20.52,20.52,0,0,0,3.32,13.05A8.71,8.71,0,0,1,39.71,180a5.66,5.66,0,0,1,6.72.49,5.56,5.56,0,0,1,1.62,4.14,4.59,4.59,0,0,1-1.51,3.46c-2.15,1.79-5,.61-7-1.09a18.82,18.82,0,0,1-1.75-1.71c-.2.33-.41.68-.62,1.06A31.07,31.07,0,0,0,38,216.8c.25.39.53.8.83,1.2a8,8,0,0,1,3.05-3.56,4.42,4.42,0,0,1,6,1.37,4.66,4.66,0,0,1,0,4.54,5.25,5.25,0,0,1-4.67,3.12,6.45,6.45,0,0,1-3.55-1.28,18.76,18.76,0,0,0,1.47,12.88,1.31,1.31,0,0,1-.4,1.69A1.07,1.07,0,0,1,40.18,236.93Zm.28-17.15A4.72,4.72,0,0,0,43.28,221h.06A3.19,3.19,0,0,0,46,219.15a2.1,2.1,0,0,0,0-2,2.37,2.37,0,0,0-3.14-.55A6.38,6.38,0,0,0,40.46,219.78Zm-1.24-36.35a17,17,0,0,0,1.65,1.64c1.28,1.09,3.18,2,4.34,1.07a2.11,2.11,0,0,0,.62-1.55,3,3,0,0,0-.82-2.17,3.65,3.65,0,0,0-4.28-.19A6.8,6.8,0,0,0,39.22,183.43Z" transform="translate(-6.1 0)"/><path class="cls-2" d="M243.41,187.35a14.92,14.92,0,0,0-1.41-4.6,9.88,9.88,0,0,0-6.81-4.84,14.12,14.12,0,0,0-4-10.09,13.34,13.34,0,0,0-2.48-2c1.61-2.3,2.25-5.64,1.77-9.42a22.91,22.91,0,0,0-6.18-12.94c2.67-3.25,3.19-8.71,1.21-13.17a17.25,17.25,0,0,0-4.7-6.13,18.39,18.39,0,0,0,2.07-7c.76-6.57-1-12.81-4.64-16.69a12.21,12.21,0,0,0-6.92-3.69c1.61-5.8,2.11-12.58-2.81-17.9a13.16,13.16,0,0,0-6.87-3.78c1.39-5,1.33-11-.15-17.84-.85-3.86-2.43-9.35-6.41-12.58A9,9,0,0,0,193,43.44a12.78,12.78,0,0,0-.21-3c-1.07-5.52-5-9.54-7.85-12.08-2.17-1.94-5.08-4.19-8.44-4.66A14.4,14.4,0,0,0,174,18.19a16.31,16.31,0,0,0-14.87-5.78A17,17,0,0,0,153.59,14a12.86,12.86,0,0,0-1.41-2,16.08,16.08,0,0,0-16.42-4.85,32.93,32.93,0,0,0-8.89,3.61c-.14-.24-.27-.45-.4-.63A14.83,14.83,0,0,0,115.78,4.2c-.31,0-.62,0-.93,0a13,13,0,0,0-6-3.4C103.41-.8,98.59,0,95.61,3.05a7.47,7.47,0,0,0-.69.8,10.8,10.8,0,0,0-8,0,11.43,11.43,0,0,0-6.15,7.48,8.79,8.79,0,0,0-1.26,0c-3.67.12-7.53,2.05-10.87,5.4A18.62,18.62,0,0,0,65,21.63a13.87,13.87,0,0,0-9.8,5.78,16.61,16.61,0,0,0-2.85,8.21A16.92,16.92,0,0,0,44,42.18c-3.61,5-5.44,15-3.21,22.05a11.76,11.76,0,0,0-2.4,2.6c-2.19,3.19-3.36,7.54-3.53,13a26.47,26.47,0,0,0,.64,7.28,16.07,16.07,0,0,0-3.9,4.18,18.49,18.49,0,0,0-2.62,15,13.18,13.18,0,0,0,1.63,3.47,15,15,0,0,0-4.22,5.67,17.17,17.17,0,0,0-.63,10.93,13.45,13.45,0,0,0-7.44,5.1c-3.46,4.78-4.56,12-2.94,19.42,0,0,0,.05,0,.09a23.93,23.93,0,0,0-9.33,18.7,24.58,24.58,0,0,0,6.49,17.23,18.44,18.44,0,0,0-1.5,3.38c-1.25,3.81-1.49,8.32-.76,13.8.67,5,1.88,8.77,3.79,11.72a14.46,14.46,0,0,0,2.32,2.79,17.4,17.4,0,0,0-.33,14.4c3.7,8.28,12.68,11.16,21.29,11.16a36.91,36.91,0,0,0,14.46-2.82l.29-.14a7.07,7.07,0,0,1,2.21-.73,7.14,7.14,0,0,1,3.28.92l.51.23a32.13,32.13,0,0,0,13.24,2.61,59.35,59.35,0,0,0,9.71-.9,8.21,8.21,0,0,1-1-2.34c-7.27,1.14-14.46,1.26-21.1-1.67l-.5-.22A9.6,9.6,0,0,0,54.6,238h-.41a9,9,0,0,0-2.87.91L51,239c-8.65,3.88-27.57,4.85-32.93-7.14A14.64,14.64,0,0,1,18.26,220a10.08,10.08,0,0,0,5.89,1.76c1.81-.08,3.88-1.15,4.12-3.32a4.2,4.2,0,0,0-.44-2.26,5.25,5.25,0,0,0-6.31-2.6,8.14,8.14,0,0,0-3.83,2.92,12.06,12.06,0,0,1-1.76-2.19c-1.7-2.62-2.79-6-3.4-10.64-.68-5.06-.47-9.18.64-12.58a15.31,15.31,0,0,1,1.12-2.61l.59.47c2.9,2.27,5.85,3,8.33,2.18a6.31,6.31,0,0,0,3.7-4.31,5.32,5.32,0,0,0-.67-4.54c-1.5-2.07-4.14-2.25-6.11-1.74a12.11,12.11,0,0,0-6.2,4.32,22.39,22.39,0,0,1-5.61-15.17,21.86,21.86,0,0,1,7.79-16.3,9.36,9.36,0,0,0,2.83,4.24,5.1,5.1,0,0,0,4.49.84,4.22,4.22,0,0,0,2.69-2.43,5,5,0,0,0-.1-3.91A5.54,5.54,0,0,0,22.55,149a7,7,0,0,0-5.12.74c-1.27-6.45-.31-12.64,2.65-16.71a11.14,11.14,0,0,1,6.51-4.31,14.4,14.4,0,0,0,2.4,3.86c1.44,1.65,2.93,2.41,4.41,2.31a3.6,3.6,0,0,0,2.8-1.94,3.38,3.38,0,0,0,.19-2.92,4.28,4.28,0,0,0-1.12-1.51A9.8,9.8,0,0,0,28,126a14.41,14.41,0,0,1,.42-9.53,12.19,12.19,0,0,1,3.73-4.86,9.45,9.45,0,0,0,8.22,3c2-.35,4-1.9,3.8-4.18s-2.24-3.46-4.25-3.65a12.34,12.34,0,0,0-7.39,1.68,10.27,10.27,0,0,1-1.42-2.94A15.78,15.78,0,0,1,33.4,92.72a14.38,14.38,0,0,1,2.91-3.25c.06.12.11.24.17.37C38.09,93.39,41,95.72,44.1,96a4.11,4.11,0,0,0,3.35-1.11c1.71-1.76,1.22-4.85-.2-6.71a8,8,0,0,0-8.59-2.63,10.68,10.68,0,0,0-1.12.41,24.64,24.64,0,0,1-.44-6c.14-4.9,1.18-8.78,3.07-11.54a9.74,9.74,0,0,1,1.57-1.81A2.89,2.89,0,0,0,42,67c1.63,3,4.93,6.18,11.37,4.68A5.09,5.09,0,0,0,56.24,70a3.89,3.89,0,0,0,.55-4.15,4.22,4.22,0,0,0-1.91-1.72c-4.5-2.34-8.73-2.67-12.1-1.09-1.79-6.2-.13-15,3-19.3a15.2,15.2,0,0,1,6.6-5.5,16.23,16.23,0,0,0,1.54,6.05A9.09,9.09,0,0,0,58.5,49a5,5,0,0,0,6.21-2.35,7,7,0,0,0-.27-6.08,9.88,9.88,0,0,0-9.8-5.43A13.85,13.85,0,0,1,57,28.94a11.79,11.79,0,0,1,7.1-4.68c-.07.28-.14.54-.18.81-.7,3.78.62,7.69,3.22,9.51a5.69,5.69,0,0,0,5.32.57,5.52,5.52,0,0,0,3.3-3.5,6.49,6.49,0,0,0-.4-4.8A9.49,9.49,0,0,0,69.61,22a12.41,12.41,0,0,0-2-.4,17.36,17.36,0,0,1,2.5-3.12c3-3,6.32-4.66,9.47-4.77h.62a16.35,16.35,0,0,0,.12,5.37,9.13,9.13,0,0,0,3,5.69,4.41,4.41,0,0,0,6.26-.66c1.37-1.86,1-4.47.3-6.29A10.78,10.78,0,0,0,83,11.71a9.21,9.21,0,0,1,4.72-5.58,8.48,8.48,0,0,1,6-.09,10.66,10.66,0,0,0-.44,5.69,6.39,6.39,0,0,0,4,5.11,4.83,4.83,0,0,0,4.37-.74,4.52,4.52,0,0,0,1.87-3.27c.2-2.14-.93-4.16-3.35-6a21.57,21.57,0,0,0-3-2c3.45-3.41,8.9-2.29,11.08-1.63A13.59,13.59,0,0,1,112,4.84a7.19,7.19,0,0,0-2.65,2A6.8,6.8,0,0,0,108,11.8a5,5,0,0,0,1.9,3.57,4,4,0,0,0,3.74.47,5.53,5.53,0,0,0,3.29-3.33,8,8,0,0,0-.33-5.76,12.85,12.85,0,0,1,8.15,4.88c.1.15.2.3.3.48a13.49,13.49,0,0,0-4.27,6,5,5,0,0,0,0,4A3.87,3.87,0,0,0,123.19,24c3,.91,4.51-.3,5.21-1.47,1.44-2.41.68-6.53-.5-9.57a30.74,30.74,0,0,1,8.39-3.39,13.94,13.94,0,0,1,14.28,4.14,10.37,10.37,0,0,1,1,1.46,14.62,14.62,0,0,0-4.88,5.59,9.92,9.92,0,0,0-1,7.09,5.48,5.48,0,0,0,2.8,3.34,3.47,3.47,0,0,0,3.23,0,5.24,5.24,0,0,0,1.73-1.63c2.8-3.88,2.75-9.11,1.13-13.31a15.63,15.63,0,0,1,4.75-1.35c5.17-.59,10.13,1.29,13,4.95a11.15,11.15,0,0,1,1.9,3.86,7.75,7.75,0,0,0-6.54,5.73c-.38,1.64-.14,3.83,1.29,5,1.8,1.45,4.26.45,5.68-1.25a10.24,10.24,0,0,0,2.17-6.9c2.54.56,4.81,2.33,6.73,4,4.12,3.67,6.37,7.05,7.07,10.68a10,10,0,0,1,.17,1.83,8.84,8.84,0,0,0-3.44,0,7.36,7.36,0,0,0-4.91,3.62c-1,1.82-1.21,4.56.43,6a3.79,3.79,0,0,0,3.48.73,7.91,7.91,0,0,0,4.95-3.89A12.43,12.43,0,0,0,192.65,46a7.09,7.09,0,0,1,1.13.74c2.58,2.11,4.33,5.66,5.54,11.19,1.43,6.54,1.47,12.2.1,16.87a31.9,31.9,0,0,0-4.29-.2c-1.85,0-3.17,0-4,1.1a4.52,4.52,0,0,0-.72,3.22,4.22,4.22,0,0,0,1.77,3.21,4.55,4.55,0,0,0,4.33.61c1.83-.74,3.31-2.49,4.38-5.22A11.28,11.28,0,0,1,207,80.7c4.12,4.45,3.76,10.13,2,16a9.73,9.73,0,0,0-6.1,2.54,7.14,7.14,0,0,0-2.42,4.61c-.17,2.23,1.14,4.36,2.93,4.75,2.13.48,4.08-1.24,5.48-4.82.53-1.35,1.13-2.9,1.7-4.55a10,10,0,0,1,6.12,3.06c3.15,3.34,4.64,8.8,4,14.59a15.89,15.89,0,0,1-1.7,5.88,26.58,26.58,0,0,0-2.56-1.52,7.75,7.75,0,0,0-4.5-1.12,4.35,4.35,0,0,0-3.75,4,4.8,4.8,0,0,0,3.49,4.68c2.63.81,5.64-.23,7.78-2.66a15.12,15.12,0,0,1,4.09,5.27c1.37,3.12,1.47,7.69-.94,10.51a18.23,18.23,0,0,0-6.46-3.52,4,4,0,0,0-3.41.42,2.55,2.55,0,0,0-1,1.82,3.55,3.55,0,0,0,.45,1.94,6.66,6.66,0,0,0,5.05,3.6,7.64,7.64,0,0,0,5.31-1.12,20.35,20.35,0,0,1,5.74,11.72c.41,3.32-.2,6.24-1.66,8a18.79,18.79,0,0,0-7.23-1.53,1.1,1.1,0,0,0-.91.49,1.33,1.33,0,0,0-.17,1.1,5.11,5.11,0,0,0,3.45,3.56,6.1,6.1,0,0,0,5.2-.74,12.45,12.45,0,0,1,2.74,2.06,11.51,11.51,0,0,1,3.27,7.86,37.28,37.28,0,0,0-4.35-.22,9.73,9.73,0,0,0-5.29,1.08,5.14,5.14,0,0,0-2.13,6.19,4.76,4.76,0,0,0,2.18,2.24,6.86,6.86,0,0,0,6.17.09,9.57,9.57,0,0,0,5.06-5.64c.09-.29.18-.58.25-.88a7.68,7.68,0,0,1,5.22,3.66,12.26,12.26,0,0,1,1.15,3.79c.88,5.07.63,11.29-2.31,15.2a6.37,6.37,0,0,0-3.77-2.5,4,4,0,0,0-3.4,1.1,3.86,3.86,0,0,0-1.2,2.81,3.51,3.51,0,0,0,1.71,3.08,5.6,5.6,0,0,0,5.8-.4c.2-.14.39-.29.58-.44a21.09,21.09,0,0,1,1.78,16.83c-4.76,14.5-24.66,16.06-36.62,12.55l-.55-.16a13.08,13.08,0,0,0-3.77-.75,13.35,13.35,0,0,0-3.92.73c-4.34,1.27-9.73,2.85-15,2.85h0a21.84,21.84,0,0,1-6.22-.87,8.57,8.57,0,0,1-.46,2.43,24.07,24.07,0,0,0,6.68.91h0c5.52,0,11.07-1.62,15.54-2.93a12,12,0,0,1,3.27-.64h.06a11.53,11.53,0,0,1,3.2.65l.56.16c13.13,3.86,34,2,39.27-14.07A23.92,23.92,0,0,0,240.32,205C244,200.45,244.44,193.2,243.41,187.35ZM22.13,216a3.15,3.15,0,0,1,3.75,1.41,1.55,1.55,0,0,1,.19.77c-.08.66-1.1,1.12-2,1.16A8,8,0,0,1,19.5,218,5.86,5.86,0,0,1,22.13,216Zm-1.49-33c1.26-.33,3-.29,3.86.89a2.67,2.67,0,0,1,.29,2.27,3.94,3.94,0,0,1-2.25,2.66c-2.42.85-5-.78-6.38-1.83-.19-.15-.38-.3-.56-.46A9.91,9.91,0,0,1,20.64,183ZM22,151.38a3.31,3.31,0,0,1,2,1.86,2.38,2.38,0,0,1,.09,1.8,1.92,1.92,0,0,1-1.28,1.07,3,3,0,0,1-2.63-.48,6.91,6.91,0,0,1-2.16-3.5A5.33,5.33,0,0,1,22,151.38Zm11.84-21a2,2,0,0,1,.52.62.76.76,0,0,1-.09.63,1.39,1.39,0,0,1-1,.74,3.76,3.76,0,0,1-2.67-1.57A11.86,11.86,0,0,1,29,128.48,7.59,7.59,0,0,1,33.86,130.42Zm5.87-21.19c1.05.1,2.19.63,2.23,1.36S41,112,40,112.16a7.17,7.17,0,0,1-5.8-1.85A10.18,10.18,0,0,1,39.73,109.23Zm-.5-21.32a5.85,5.85,0,0,1,6.34,1.84c.74,1,1.06,2.57.37,3.28a2.21,2.21,0,0,1-1.69.46c-2.28-.17-4.55-2-5.8-4.77l-.19-.45A7.1,7.1,0,0,1,39.23,87.91Zm14.7-21.56a2.24,2.24,0,0,1,.94.73,1.28,1.28,0,0,1-.27,1.23,3.12,3.12,0,0,1-1.72.91c-4.15,1-7.19-.23-9-3.55a3,3,0,0,1-.21-.4C47.46,63.49,51.86,65.27,53.93,66.35ZM62.5,41.77a4.51,4.51,0,0,1,.27,3.7,2.91,2.91,0,0,1-3.56,1.2,6.77,6.77,0,0,1-3.36-3.58,14,14,0,0,1-1.31-5.43A7.83,7.83,0,0,1,62.5,41.77Zm6.56-17.34A7.2,7.2,0,0,1,73.35,28a3.7,3.7,0,0,1,.27,2.82,3.21,3.21,0,0,1-1.93,2,3.68,3.68,0,0,1-3.42-.34c-2-1.42-2.65-4.55-2.22-6.92A11.08,11.08,0,0,1,66.46,24,9.57,9.57,0,0,1,69.06,24.43Zm18.88-5.52c.44,1.07.72,2.69,0,3.67a2.39,2.39,0,0,1-3.29.19,7,7,0,0,1-2.14-4.18,13.24,13.24,0,0,1-.08-4.48A8.57,8.57,0,0,1,87.94,18.91Zm11-10.07c1.17.9,2.53,2.28,2.4,3.74a2.06,2.06,0,0,1-.89,1.45,2.74,2.74,0,0,1-2.48.45,4.14,4.14,0,0,1-2.47-3.29,7.91,7.91,0,0,1,.37-4.29A20.66,20.66,0,0,1,98.92,8.84Zm15.89,2.76a3.14,3.14,0,0,1-1.89,1.88,2,2,0,0,1-1.86-.19,2.62,2.62,0,0,1-.92-1.8,4.13,4.13,0,0,1,.8-3,5.14,5.14,0,0,1,3-1.75A5.57,5.57,0,0,1,114.81,11.6Zm11.75,9.56c-.45.72-1.38.87-2.79.44a1.78,1.78,0,0,1-1.14-.72,2.66,2.66,0,0,1,.16-1.89A11,11,0,0,1,126,14.36C126.89,16.81,127.37,19.8,126.56,21.16ZM151.77,28a3.45,3.45,0,0,1-1,1,1.54,1.54,0,0,1-1.41,0,3,3,0,0,1-1.54-1.83,7.57,7.57,0,0,1,.83-5.13,12.09,12.09,0,0,1,4-4.58C153.92,20.8,153.91,25,151.77,28ZM173,31.45c-.75.92-2,1.51-2.74.93a2.5,2.5,0,0,1-.45-2.35,5.51,5.51,0,0,1,4.78-3.92A7.63,7.63,0,0,1,173,31.45ZM189.46,48a5.71,5.71,0,0,1-3.53,2.82,1.94,1.94,0,0,1-1.66-.22c-.6-.54-.44-1.89.07-2.81a5.14,5.14,0,0,1,3.44-2.5,6.8,6.8,0,0,1,1.43-.14,7.26,7.26,0,0,1,1.31.12A9.76,9.76,0,0,1,189.46,48Zm6.26,32.42a2.53,2.53,0,0,1-2.36-.36,1.71,1.71,0,0,1-.77-1.31c-.07-1.06.1-1.32.13-1.36.23-.27,1.4-.29,2.43-.31h.61c.9,0,1.83,0,2.78.12A5.85,5.85,0,0,1,195.72,80.37Zm11.14,22.42c-.45,1.12-1.6,3.71-3,3.39a2,2,0,0,1-1.16-2.12,4.86,4.86,0,0,1,1.64-2.92,7.35,7.35,0,0,1,3.85-1.85C207.76,100.46,207.31,101.62,206.86,102.79Zm5.39,23.59c-.95-.3-1.92-1.18-1.86-2.14a2,2,0,0,1,1.78-1.66l.38,0a6.85,6.85,0,0,1,2.93.93c.65.35,1.35.74,2.06,1.21A5.44,5.44,0,0,1,212.25,126.38Zm5.29,17.31a4.49,4.49,0,0,1-3.41-2.37,1.13,1.13,0,0,1-.18-.47,1.22,1.22,0,0,1,.83-.21,2.59,2.59,0,0,1,.79.11,16.15,16.15,0,0,1,5,2.57A5.61,5.61,0,0,1,217.54,143.69Zm15,36.69a7.09,7.09,0,0,1-3.81,4.22,4.86,4.86,0,0,1-4.37,0,2.77,2.77,0,0,1-1.16-1.12,2.62,2.62,0,0,1,1.22-2.93,8.26,8.26,0,0,1,4.22-.77h.16a33.44,33.44,0,0,1,3.87.2C232.63,180.11,232.58,180.25,232.54,180.38ZM236.89,205a3.61,3.61,0,0,1-3.57.31,1,1,0,0,1-.54-.92,1.32,1.32,0,0,1,.43-.92,2,2,0,0,1,1.36-.56,2.13,2.13,0,0,1,.25,0,4.51,4.51,0,0,1,2.49,1.74Z" transform="translate(-6.1 0)"/><path class="cls-2" d="M234.41,221.39a1,1,0,0,0-1.56.09c-1.76,2.16-5,2.08-7.13.75s-3.82-3.77-5.09-7.31a32.08,32.08,0,0,1-1.22-17,6.56,6.56,0,0,0,1.72-.14,6.29,6.29,0,0,0,4.09-3.31,5.7,5.7,0,0,0,.45-4.4,1.18,1.18,0,0,0-.24-.44,3.38,3.38,0,0,0-4.78-.22,8.43,8.43,0,0,0-2.33,3.92c-.19.57-.37,1.16-.53,1.74a10.71,10.71,0,0,1-3.13-1.92c-6-5.24-7.92-15.68-4.61-23.31a7.64,7.64,0,0,0,1.71.09,5.88,5.88,0,0,0,4.74-2.85,1.47,1.47,0,0,0,.19-.49,3.1,3.1,0,0,0-.79-2.51,3.14,3.14,0,0,0-2.85-1c-1.63.32-2.74,1.77-3.44,2.82-.24.37-.47.74-.68,1.14a8.55,8.55,0,0,1-3.56-2.6,15.52,15.52,0,0,1-2.6-12.54,6.53,6.53,0,0,0,4.32-1,5.63,5.63,0,0,0,2.6-4.25,3.89,3.89,0,0,0-.8-3,2.47,2.47,0,0,0-2-.88,5,5,0,0,0-3.46,2.19,15.63,15.63,0,0,0-2,3.81c-1.81-1.13-3.24-3.4-4.25-6.77a33.26,33.26,0,0,1-1-14.88,17.18,17.18,0,0,1,1.08-4,10.8,10.8,0,0,0,8.05-2.88,1.34,1.34,0,0,0,.37-.93,1.28,1.28,0,0,0-.36-.93c-2.31-2.32-5.94-1.54-8,.5a9.16,9.16,0,0,0-1.29,1.64,10.78,10.78,0,0,1-4.59-2c-3.48-2.58-6-7.17-7-12.93a15.53,15.53,0,0,1-.27-2.19,29.64,29.64,0,0,0,5.6-2.67,1.28,1.28,0,0,0,.55-1.37,3.44,3.44,0,0,0-2.56-2.7,4.31,4.31,0,0,0-4.48,1.59,6.93,6.93,0,0,0-1.25,3.24,13.41,13.41,0,0,1-2.46.36,9.33,9.33,0,0,1-8.15-3.67c-1.85-2.65-1.78-6.64.15-8.72a1.34,1.34,0,0,0,0-1.72,1,1,0,0,0-1.53-.11,8.1,8.1,0,0,1-8.37,1.64c-2.46-1-4.5-4.28-4.95-7.6a8.84,8.84,0,0,0,5.64-3.51,5.27,5.27,0,0,0,.91-4.08,2.55,2.55,0,0,0-1.47-1.82,2.74,2.74,0,0,0-1.92,0c-3.16,1-5.1,3.52-5.42,7.08a8.74,8.74,0,0,1-6.37-3.4,14.34,14.34,0,0,1-2.22-10.67H146a6.63,6.63,0,0,0,6.61-3.81c.74-1.69.68-4.14-.87-5.37a2.76,2.76,0,0,0-2.51-.55,6.71,6.71,0,0,0-3.73,3.53,19.11,19.11,0,0,0-1.25,3.28,12.93,12.93,0,0,1-3.44-2.17c-3.72-3.13-8.57-7.95-7.88-13.64l.09-.71a1.21,1.21,0,0,0-.94-1.38,1.13,1.13,0,0,0-1.26,1,20.65,20.65,0,0,1-8.49,14.11c-2.3,1.54-5.58,2.64-8.07,1.21.12-.21.23-.42.34-.64a16.75,16.75,0,0,0,2.28-7.44c0-2.81-1.49-6.13-4.36-6.75a1,1,0,0,0-1.13.53,16,16,0,0,0-2,10.77,9.07,9.07,0,0,0,1.87,4.1c-2.44,4-4.94,6-7.62,6.17a6.4,6.4,0,0,1-3.8-1,15.74,15.74,0,0,0,1.35-7.88c-.27-2.81-1.58-6.28-4.42-7.61a5,5,0,0,0-5,.67,4.73,4.73,0,0,0-1.92,3.92,8.25,8.25,0,0,0,1.37,3.95,31.76,31.76,0,0,0,5.68,7.67,10.88,10.88,0,0,1-6.37,4.86A9.13,9.13,0,0,1,85.76,72a16.15,16.15,0,0,0-.51-8.58,7.88,7.88,0,0,0-3.62-4.73,4.21,4.21,0,0,0-1.16-.35,4.14,4.14,0,0,0-2.38.29A4,4,0,0,0,76,60.76a6.3,6.3,0,0,0,0,3.93,14.32,14.32,0,0,0,1.42,3.44A14.12,14.12,0,0,0,83,73.49a11.4,11.4,0,0,1-.83,1.68A8.56,8.56,0,0,1,75,79.61H74.9a18.08,18.08,0,0,1-3.42-.38,15.3,15.3,0,0,0-4.7-.35c-6.62.82-10.38,9-10.66,16.71a21.28,21.28,0,0,0,.72,7c-3.42,4.58-4.22,10.95-4.39,14a25.5,25.5,0,0,0,.33,6.13A16.37,16.37,0,0,0,42.6,133.52a18.84,18.84,0,0,0,.14,10.83,9.14,9.14,0,0,0-4,4.9,1.29,1.29,0,0,0,.64,1.6,1.08,1.08,0,0,0,1.43-.71,6.88,6.88,0,0,1,2.76-3.49,16.34,16.34,0,0,0,3.69,5.15,6.49,6.49,0,0,0,6,1.63,3.55,3.55,0,0,0,2.31-2.58A5.61,5.61,0,0,0,54.3,146a8.44,8.44,0,0,0-8.51-2.85c-.32.07-.66.15-1,.25a16.14,16.14,0,0,1-.11-9.11,14.16,14.16,0,0,1,8.68-9.24,9.57,9.57,0,0,0,4.22,5.56,3.77,3.77,0,0,0,2.48.6,3.27,3.27,0,0,0,2.48-2.28,5.18,5.18,0,0,0-.49-4.54c-1.18-1.68-3.26-2.51-5.88-2.39-.42,0-.85.08-1.26.14a22.87,22.87,0,0,1-.27-5.44c.14-2.57.76-7.7,3.24-11.64,1.54,2.69,4.73,4.93,7.93,4a6,6,0,0,0,3.84-4,5.7,5.7,0,0,0-.47-4.9c-1.82-2.84-5.52-2.82-8.24-1.32a12.36,12.36,0,0,0-2.32,1.67,20.24,20.24,0,0,1-.31-4.85C58.58,89.06,61.65,82,67,81.34a13.5,13.5,0,0,1,4.1.33,21.8,21.8,0,0,0,3.47.41h.34a10.76,10.76,0,0,0,9-5.54,13.2,13.2,0,0,0,1.08-2.2,11.23,11.23,0,0,0,6,.22,13.09,13.09,0,0,0,7.7-5.89,8.4,8.4,0,0,0,5.05,1.41c3.37-.19,6.41-2.53,9.26-7.12,2.84,1.76,6.71,1.31,10.42-1.19a22.38,22.38,0,0,0,7.89-9.87c1.51,4.33,5.12,7.83,8.09,10.33a14.46,14.46,0,0,0,4.25,2.61c-.75,4.67.17,9.45,2.68,12.78a10.8,10.8,0,0,0,8.1,4.28c.48,4.31,3.08,8.4,6.42,9.77a9.73,9.73,0,0,0,7.1.09,10.65,10.65,0,0,0,.11,4.66,10.78,10.78,0,0,0,.63,1.81,4.09,4.09,0,0,0,.26.51,8.39,8.39,0,0,0,.62,1,11.31,11.31,0,0,0,10,4.63,16.18,16.18,0,0,0,2.32-.31,16.75,16.75,0,0,0,.28,2.09c1.18,6.38,4,11.53,8,14.49a13.26,13.26,0,0,0,4.75,2.21,20.81,20.81,0,0,0-1,3.85,36.19,36.19,0,0,0,1.05,16.1c1.27,4.18,3.18,7,5.67,8.36a18.29,18.29,0,0,0,3,14.87,10.77,10.77,0,0,0,4.17,3.17c-3.57,8.65-1.41,20,5.42,25.89a12.21,12.21,0,0,0,3.94,2.37,34.88,34.88,0,0,0,1.34,18.35c1.47,4.07,3.51,7,6.07,8.53a8.2,8.2,0,0,0,4.36,1.28,7,7,0,0,0,5.49-2.53A1.32,1.32,0,0,0,234.41,221.39Zm-14-27.16a6.4,6.4,0,0,1,1.57-2.8,1.78,1.78,0,0,1,1.1-.39,1,1,0,0,1,.59.16,3.31,3.31,0,0,1-.35,2.07,4,4,0,0,1-2.59,2.12,5.83,5.83,0,0,1-.7.09C220.13,195.06,220.26,194.65,220.39,194.23Zm-9-26.87c.74-1.13,1.38-1.71,2-1.84l.13,0a1.12,1.12,0,0,1,.78.36l.11.16a3.71,3.71,0,0,1-2.83,1.46,1.62,1.62,0,0,1-.31,0A.8.8,0,0,1,211.41,167.36Zm-6.31-20.79a3,3,0,0,1,1.84-1.29.4.4,0,0,1,.36.15,1.45,1.45,0,0,1,.18,1,3.24,3.24,0,0,1-1.51,2.36,4.57,4.57,0,0,1-2.47.7A13,13,0,0,1,205.1,146.57Zm-3.34-27.06a5.44,5.44,0,0,1,.58,0,8.48,8.48,0,0,1-3.47,1.15A4.38,4.38,0,0,1,201.76,119.51Zm-16.84-19.6a2.15,2.15,0,0,1,1.73-.82,3.31,3.31,0,0,1,.53.06,2.33,2.33,0,0,1,.33.14,29.12,29.12,0,0,1-3.06,1.48A3.22,3.22,0,0,1,184.92,99.91ZM160.41,74.72a1.52,1.52,0,0,1,.44-.07.31.31,0,0,1,.13,0s.08,0,.11.15a2.65,2.65,0,0,1-.5,1.87,6.54,6.54,0,0,1-3.91,2.56A5.16,5.16,0,0,1,160.41,74.72Zm-13-14.38a4.38,4.38,0,0,1,2.26-2.3.76.76,0,0,1,.72.13,2.13,2.13,0,0,1,.18,2.27,4.46,4.46,0,0,1-4.08,2.46h-.09A16,16,0,0,1,147.41,60.34ZM46.2,145.59a6.52,6.52,0,0,1,6.46,2.08,3.13,3.13,0,0,1,.86,2.5,1.17,1.17,0,0,1-.83.9,4.53,4.53,0,0,1-4-1.18,13.54,13.54,0,0,1-3-4.18C45.87,145.66,46,145.63,46.2,145.59Zm10.1-21.1c1.08-.07,3.05.05,4,1.43a2.43,2.43,0,0,1,.18,2.09,1.06,1.06,0,0,1-.72.76,1.91,1.91,0,0,1-1.17-.35,7.07,7.07,0,0,1-3-3.87C55.82,124.52,56.06,124.5,56.3,124.49ZM62,101.08c1.85-1,4.39-1.1,5.45.55a3,3,0,0,1,.18,2.61,3.72,3.72,0,0,1-2.29,2.46c-2.21.62-4.48-1.07-5.56-3-.11-.2-.21-.39-.3-.6A10.22,10.22,0,0,1,62,101.08Zm21.71-30a11.52,11.52,0,0,1-5.32-6.33c-.09-.25-.17-.49-.24-.74A3.78,3.78,0,0,1,78,61.75a1.53,1.53,0,0,1,.86-.86,1.75,1.75,0,0,1,.71-.16.55.55,0,0,1,.18,0,2.06,2.06,0,0,1,.94.22,5.77,5.77,0,0,1,2.46,3.35A13.29,13.29,0,0,1,83.67,71.07ZM98,65.14a31.07,31.07,0,0,1-4.91-6.84,6.28,6.28,0,0,1-1-2.69,2.28,2.28,0,0,1,1-1.82,3.1,3.1,0,0,1,1.86-.64,2.34,2.34,0,0,1,1,.22c2,.91,2.87,3.48,3.07,5.59A12.89,12.89,0,0,1,98,65.14ZM112.62,59a2.26,2.26,0,0,0-.11.22,6.6,6.6,0,0,1-1-2.42,13.18,13.18,0,0,1,1.2-8,4.82,4.82,0,0,1,1.86,4A14.26,14.26,0,0,1,112.62,59Z" transform="translate(-6.1 0)"/><path class="cls-2" d="M183.67,78a11.65,11.65,0,0,1-7.44-3,24,24,0,0,1-5.64-7.77c-.32-.64-.65-1.34-.93-2.07a12.83,12.83,0,0,1-5.79-2.61c-3.69-2.7-7.3-7.49-6.38-12.87a17.38,17.38,0,0,1,.51-2,1.1,1.1,0,0,1,1.41-.78,1.29,1.29,0,0,1,.7,1.57,12.44,12.44,0,0,0-.44,1.72c-.72,4.17,2.33,8.07,5.42,10.33a11.91,11.91,0,0,0,3.86,2,7.53,7.53,0,0,1-.08-.83,6.56,6.56,0,0,1,2.43-5.79,3.86,3.86,0,0,1,3.48-.42A3.7,3.7,0,0,1,177,57.71a5.23,5.23,0,0,1-.71,4.64,6.64,6.64,0,0,1-4.22,2.77c.14.32.29.64.45.95a21.38,21.38,0,0,0,5.05,7,9.07,9.07,0,0,0,7.17,2.39,1.13,1.13,0,0,1,1.26,1,1.22,1.22,0,0,1-.94,1.4A8.18,8.18,0,0,1,183.67,78ZM173.45,57.74a1.8,1.8,0,0,0-1,.29,4.14,4.14,0,0,0-1.37,3.53,9.47,9.47,0,0,0,.17,1.19,4.57,4.57,0,0,0,3.28-1.88,2.59,2.59,0,0,0,.43-2.21,1.41,1.41,0,0,0-.86-.81A2.06,2.06,0,0,0,173.45,57.74Z" transform="translate(-6.1 0)"/><path class="cls-3" d="M168.42,237.25a85,85,0,0,1-77.37,5l4.62-34.14,1.39-13.21,2.08-19.71.11,0c7.07,3.23,13.56,6.31,21.65,6.31,13,0,24.39-2.68,34.42-10.48L159,189.9l2.27,11.82Z" transform="translate(-6.1 0)"/><path class="cls-4" d="M159,189.9a79.16,79.16,0,0,1-36.9,8.94,80.68,80.68,0,0,1-25-3.92l2.08-19.71.11,0c7.07,3.23,13.56,6.31,21.65,6.31,13,0,24.39-2.68,34.42-10.48Z" transform="translate(-6.1 0)"/><path class="cls-3" d="M174.85,99.79c0-.18,0-.38,0-.56,0-.65,0-1.29-.05-1.93,0-1.66.65-4.6-1-5.76s-4.06.19-5.81-.2a8,8,0,0,1-4.27-2.8c-1.6-1.9-2.91-5.76-4.94-7.14a3,3,0,0,0-1.7-.23c-3.16,0-5.92-2.45-7.18-5.37s-1.3-6.18-1.3-9.35a2.47,2.47,0,0,0-1.29-2.58c-5.44-3.92-12.28-7-14.6-13.33-2.26,3.93-5,7.72-8.74,10.28s-8.69,3.7-12.92,2.08c-2.12,5.45-9.32,8.23-14.57,5.62a14.51,14.51,0,0,1-15.94,5.61c1,.33-3.13,4.71-3.48,5-2.75,2.34-6.75,1.17-7.31,4.94-.89,4.57-1.56,9.21-2.11,13.83-.09.83-.19,1.66-.29,2.49-1.07,9.92-1.64,19.67-2.53,28.22-2.82,26.86,14.3,43.54,33.47,52.75.68.34,1.36.65,2.06.93a50.4,50.4,0,0,0,20,4.12,51.35,51.35,0,0,0,30.51-10.13c.13-.1.26-.17.38-.27C165.58,165.3,175,147.36,175,127,175,118.6,175.05,109.13,174.85,99.79Z" transform="translate(-6.1 0)"/><path class="cls-5" d="M113.6,136.76a1.37,1.37,0,0,1-1-.41,1.34,1.34,0,0,1-.33-1.36l8.84-28.11a1.36,1.36,0,0,1,1.71-.89,1.38,1.38,0,0,1,.89,1.71l-8.08,25.65,13.34-4a1.36,1.36,0,0,1,.78,2.6L114,136.7A1.34,1.34,0,0,1,113.6,136.76Z" transform="translate(-6.1 0)"/><path class="cls-1" d="M83.6,91.59a1.36,1.36,0,0,1-1.07-2.19c.17-.22,4.28-5.36,12.83-5.58,7.45-.21,10.78,3.23,10.92,3.38a1.36,1.36,0,1,1-2,1.86c-.1-.1-2.7-2.68-8.87-2.52-7.28.19-10.72,4.49-10.76,4.53A1.35,1.35,0,0,1,83.6,91.59Z" transform="translate(-6.1 0)"/><path class="cls-5" d="M122.76,155.18a18.06,18.06,0,0,1-13.25-5.75,1.36,1.36,0,1,1,2.08-1.75h0a15.58,15.58,0,0,0,11.17,4.78c7.11,0,12.26-5,12.31-5.08a1.36,1.36,0,0,1,1.92,1.93C136.75,149.55,131,155.18,122.76,155.18Z" transform="translate(-6.1 0)"/><circle class="cls-5" cx="88.58" cy="110.97" r="4.11"/><path class="cls-1" d="M158.48,91.59a1.36,1.36,0,0,1-1.07-.51c-.15-.19-3.56-4.35-10.76-4.54-6.19-.17-8.77,2.42-8.88,2.53a1.36,1.36,0,0,1-2-1.87c.14-.15,3.47-3.58,10.92-3.38,8.55.22,12.66,5.36,12.83,5.58a1.36,1.36,0,0,1-1.07,2.19Z" transform="translate(-6.1 0)"/><circle class="cls-5" cx="138.8" cy="110.97" r="4.11"/><path class="cls-6" d="M180,237.85a7.44,7.44,0,0,1-.52,2.43,8.29,8.29,0,0,1-6.42,5.28c-2,.33-4.24.69-6.73,1.06-1.18.18-2.42.35-3.71.53-4.52.62-9.58,1.25-14.83,1.75-1.22.12-2.46.23-3.71.33-4.95.42-10,.7-14.82.76h-3.72c-5.58,0-11-.24-16-.53l-3.71-.25c-5.33-.37-10.23-.86-14.5-1.34-1.3-.15-2.54-.29-3.71-.44-2.3-.29-4.36-.57-6.14-.83a8,8,0,0,1-5.4-3.28A7.51,7.51,0,0,1,74.92,241a8,8,0,0,1-.32-3.13l2.33-24.34a7.58,7.58,0,0,1,8.35-6.82c.73.09,1.51.16,2.33.25l3.71.38c4.27.4,9.25.82,14.6,1.15,1.22.09,2.46.15,3.72.21,5.22.29,10.67.48,16,.48,1.2,0,2.45,0,3.74-.09,4.61-.17,9.72-.64,14.79-1.26l3.74-.47c5.33-.72,10.46-1.54,14.78-2.28,1.06-.2,2.09-.37,3.05-.54.23,0,.45-.08.67-.1a8.78,8.78,0,0,1,9.54,7.32l4,24.26A7.72,7.72,0,0,1,180,237.85Z" transform="translate(-6.1 0)"/><path class="cls-7" d="M91.32,207.32v40.55c-1.3-.15-2.54-.29-3.71-.44V206.94Z" transform="translate(-6.1 0)"/><path class="cls-7" d="M109.6,230.37c0,6.8,0,13.59-.07,19.09l-3.71-.25c.07-14.68.13-30.89.1-40.74,1.22.09,2.46.15,3.72.21C109.65,213.42,109.64,220.31,109.6,230.37Z" transform="translate(-6.1 0)"/><path class="cls-7" d="M129.37,230.37c0,7-.05,14-.09,19.62h-3.72c.09-14.56.15-30.75.11-40.83,1.2,0,2.45,0,3.74-.09C129.42,213.79,129.41,220.57,129.37,230.37Z" transform="translate(-6.1 0)"/><path class="cls-7" d="M147.9,230.37c0,6.58-.05,13.14-.09,18.53-1.22.12-2.46.23-3.71.33.09-15,.15-31.65.1-41.42l3.74-.47C148,212.09,147.94,219.31,147.9,230.37Z" transform="translate(-6.1 0)"/><path class="cls-7" d="M166.43,230.37c0,5.68,0,11.34-.08,16.25-1.18.18-2.42.35-3.71.53.09-16,.14-33.33.08-42.09,1.06-.2,2.09-.37,3.05-.54.23,0,.45-.08.67-.1C166.49,208.94,166.48,216.74,166.43,230.37Z" transform="translate(-6.1 0)"/></svg>