<svg id="Capa_1" data-name="Capa 1" xmlns="http://www.w3.org/2000/svg" viewBox="0 0 217.15 250"><defs><style>.cls-1{fill:#3d3e3f;}.cls-2{fill:#fdd6ac;}.cls-3{fill:#f9be94;}.cls-4{fill:#2b2c2d;}.cls-5{fill:#89bb54;}</style></defs><g id="classic_curly" data-name="classic curly"><path class="cls-1" d="M104,178.14l0-.44c.52-7.7,4.3-18.54,10.62-23.34,5.71-4.33,15.72-10,22.93-7.12,3.67,1.49,6.32,4.8,8.14,8.32,2.38,4.56,3.63,9.62,5.65,14.36s5,9.37,9.65,11.62c2.6,1.27,5.68,1.77,7.77,3.77,3.22,3.08,2.8,8.25,2.13,12.66a15.23,15.23,0,0,0,1.91-15.45c-1.71-3.75-4.89-6.63-6.94-10.21-3.93-6.82,1.34-14.87,5-20.86-1.41,5-1.61,10.25,1,15A17.79,17.79,0,0,0,183,175.21a15.15,15.15,0,0,1,3.56,1.1,6.87,6.87,0,0,1,2,1.74,9.68,9.68,0,0,1-7.15,15.73,16.38,16.38,0,0,0,17.17-4.26,15,15,0,0,0,1.73-17.4c-2-3.24-5.22-5.51-8.38-7.64s-6.44-4.27-8.64-7.38-3.13-7.45-1.21-10.74a17,17,0,0,0,12.66,13.43c3.52.81,10,.13,12.58,3.2,2.79,3.33-1,7.35-.61,11s3.93,7.06,4.82,10.89A16.45,16.45,0,0,1,209,198.1c1-1.43,4.59-2.49,6.06-4a18.57,18.57,0,0,0,4.42-7.36c.77-2.42,1.45-5.92.5-8.39-1-2.65-4-4.08-4.55-7.09-.63-3.75,3.18-7.26,2.37-11-.93-4.29-5.78-4.71-8.5-7.19-3.77-3.44-5.43-10-5.28-14.93-.25,8.24,11,13.09,16.63,16.89a22.27,22.27,0,0,1,9.57,18.75c1.67-4.61,3.35-9.33,3.4-14.24s-1.84-10.11-6-12.77a29.66,29.66,0,0,1-3.86-2.39c-2.91-2.58-2.82-7.27-1.21-10.8s4.39-6.39,6.44-9.68c4.87-7.82,4.94-19,.1-26.76-5.14-8.27-15.74-11.62-21.61-19.4-6.56-8.69-5.76-20.61-6.08-31.5s-3.34-23.53-13.34-27.85c-4.85-2.09-10.36-1.7-15.57-2.51-8.84-1.36-10.06-7.47-16.08-12.51-6.78-5.66-13.72-3.23-21-.07-9,3.89-13.09,2.1-22.57-.24A50.85,50.85,0,0,0,73.53,9.7,54.66,54.66,0,0,0,52.65,36c-3.94,10.69.54,22.49-6.55,32.59C39.89,77.41,27.68,81,22.53,90.46a19.26,19.26,0,0,0,.88,19.44c3,4.56,8.23,8.25,8.49,13.72.39,8-6.5,13.26-10.76,19.18-4.09,5.68-6.72,16.18-2.74,22.55,2.85,4.57,8.87,7.52,9.23,12.89.15,2.26-.8,4.43-1.2,6.66-.84,4.79,1,9.8,4.12,13.54a31.9,31.9,0,0,0,11.87,8.3c-8.07-4-11.85-14.93-8-23.09,1-2.16,2.49-4.14,3.06-6.45,1.35-5.44-2.55-10.73-6.65-14.55q7.78,6.07,15.45,12.3A8.68,8.68,0,0,1,49,178.06c1.3,3-1,6.23-2.17,9.29-1,2.67-1.68,7.75-.61,10.51,1.34,3.48,3.93,3.15,6.59,5-2.12-1.5-2.5-4.69-1.38-7a11.52,11.52,0,0,1,5.72-5.08,13.51,13.51,0,0,0,3-1.65c1.85-1.57,2.38-4.22,2.28-6.65A24.24,24.24,0,0,0,55,167.11c2.83.7,6,2,7.74,4.52,3.13,4.54,3.76,8.3,10.06,8.92a8.4,8.4,0,0,1,4.4,1.26c1.9,1.49,2,4.34,1.53,6.7a18.92,18.92,0,0,1-9.82,12.74c6.22,2.11,13.33-3,16.63-7.89,3.69-5.5,4.44-12.5,3.85-19.1.33,3.69,2.88,7.43,3.28,11.19.49,4.73-1.37,10.44-3.22,14.71a12,12,0,0,0,3-1.51C100.19,193.66,103.33,186.73,104,178.14Z" transform="translate(-16.43 0)"/><path class="cls-2" d="M167.1,228.74c-11.74,7-24.31,14.27-39,14.27-11.07,0-22.76-5.5-32.3-9.65l4.26-31.45,3.19-30.33.11,0c6.51,3,12.49,5.82,19.94,5.82,12,0,22.48-2.48,31.72-9.66L160.47,196Z" transform="translate(-16.43 0)"/><path class="cls-3" d="M160.47,196A53.69,53.69,0,0,1,126,208.83a52.37,52.37,0,0,1-25.93-6.92l3.49-32.06c6.56,3,12,5.17,19.45,5.17,12,0,22.78-2.81,32-10Z" transform="translate(-16.43 0)"/><path class="cls-2" d="M173.13,126.41v.76c0,18.74-8.65,35.28-21.86,45.15-.11.09-.23.16-.35.25a47.31,47.31,0,0,1-28.11,9.33,46.42,46.42,0,0,1-18.41-3.79c-.65-.27-1.27-.55-1.9-.86-15-7.2-29.7-20.09-32.28-38.92a20.14,20.14,0,0,0,6.8-3.2,19.55,19.55,0,0,0,7.89-14.07c.65-8.33-4.6-14.75-5.53-22.46-.82-6.84,3-13.87,8.37-18.12,6.94-5.51,16.06-7.55,24.88-9.07,4.53-.77,9.14-1.48,13.28-3.41,11-5.13,16-17.35,20.06-28.5,3.37,16.86,21.77,28.48,23.55,45.56,1.12,10.7-4.65,21.75-1.21,32C169.44,120.36,171.46,123.31,173.13,126.41Z" transform="translate(-16.43 0)"/><path class="cls-4" d="M116.6,136.15a1.27,1.27,0,0,1-1.2-1.63l8.15-25.9a1.25,1.25,0,1,1,2.39.75L118.5,133l12.29-3.68a1.25,1.25,0,1,1,.72,2.4L117,136.09A1.13,1.13,0,0,1,116.6,136.15Z" transform="translate(-16.43 0)"/><path class="cls-1" d="M89,94.53a1.23,1.23,0,0,1-.77-.26A1.26,1.26,0,0,1,88,92.51c.15-.2,3.94-4.93,11.81-5.14,6.87-.2,9.94,3,10.07,3.11A1.26,1.26,0,0,1,108,92.2c-.09-.09-2.48-2.47-8.17-2.32-6.7.17-9.88,4.13-9.91,4.17A1.25,1.25,0,0,1,89,94.53Z" transform="translate(-16.43 0)"/><path class="cls-4" d="M125,153.12a16.61,16.61,0,0,1-12.21-5.3,1.25,1.25,0,1,1,1.91-1.61h0a14.42,14.42,0,0,0,10.3,4.4c6.54,0,11.29-4.63,11.33-4.67a1.26,1.26,0,0,1,1.78,1.77C137.92,147.93,132.65,153.12,125,153.12Z" transform="translate(-16.43 0)"/><circle class="cls-4" cx="85.04" cy="112.39" r="3.78"/><path class="cls-1" d="M158,94.53a1.26,1.26,0,0,1-1-.47c-.14-.17-3.28-4-9.91-4.18-5.71-.16-8.08,2.23-8.18,2.33a1.26,1.26,0,0,1-1.82-1.73c.12-.13,3.19-3.29,10.06-3.11,7.88.21,11.66,4.94,11.82,5.14a1.26,1.26,0,0,1-.21,1.76A1.23,1.23,0,0,1,158,94.53Z" transform="translate(-16.43 0)"/><circle class="cls-4" cx="129" cy="112.39" r="3.78"/><path class="cls-5" d="M128,240.26a6,6,0,0,1,2.18,2.21,3.57,3.57,0,0,1-1.16,4,10.47,10.47,0,0,1-4.21,2,39.34,39.34,0,0,1-27.32-2.13A33.32,33.32,0,0,1,80,227.28c-1.3-3.9-1.67-8.41.82-11.81,6.21-8.46,14.61,1.54,19.71,5.18Z" transform="translate(-16.43 0)"/><path class="cls-5" d="M132.4,240.26a6,6,0,0,0-2.19,2.21,3.6,3.6,0,0,0,1.16,4,10.47,10.47,0,0,0,4.21,2,39.33,39.33,0,0,0,27.32-2.13,33.29,33.29,0,0,0,17.44-19.08c1.3-3.9,1.67-8.41-.82-11.81-6.2-8.46-14.6,1.54-19.7,5.18Z" transform="translate(-16.43 0)"/></g></svg>