<svg id="Capa_1" data-name="Capa 1" xmlns="http://www.w3.org/2000/svg" viewBox="0 0 231.98 250"><defs><style>.cls-1{fill:#3d3e3f;}.cls-2{fill:#535455;}.cls-3{fill:#fab94a;}.cls-4{fill:#fdd6ac;}.cls-5{fill:#f9be94;}.cls-6{fill:#2b2c2d;}</style></defs><path class="cls-1" d="M239.85,174.46a62.32,62.32,0,0,0-21.71-4.86c-.74,0-1.5-.07-2.29-.09-2-.08-4.16-.11-6.49-.11-5.94,0-11.09,3.15-17,5.74-.92.42-1.88.82-2.85,1.19h0a30,30,0,0,1-21.52.45c-15.85-5.28-31.46,0-55.16,4.66C96.19,184.71,80,173.49,65.15,177l-.49.11c-1.16.28-2.37.55-3.61.82-9.93,2.13-21.88,3.71-29.78-1.13l-.57-.33a14.12,14.12,0,0,0-2.49-1h0c-7.83-2.44-19.07.19-19.07.19-.19-4.86,1.09-13.22,4.46-22.53,4.67-12.82-2.33-16-4.07-23.88-2.23-10,2.91-23.7,14-26.8,9.41-2.65,9-6.42,9.9-12.53s-2.46-16.27.88-29.13c3.79-14.57,13-13.12,20.39-17.48C64.57,37.44,61,13,83.21,5.69c19.53-6.41,32.93,1.46,32.93,1.46,19.23-10.49,45.25-9.82,56.12,4.56,8.53,11.26,8.43,11.57,17.49,15.93,9.9,4.76,12.81,13.2,16.11,27,3.85,16.07,6,23.36,15.73,31.16,7.38,5.94,12.23,22.73,8.16,31.47s-2.91,18.35,5.83,27.38,4.27,29.82,4.27,29.82" transform="translate(-9.01 0)"/><path class="cls-2" d="M74.16,75.6A8,8,0,0,0,77,73.16l.56-.74.49-.8A16.1,16.1,0,0,0,79,70a39.31,39.31,0,0,0,2.43-7.12c.59-2.47,1.08-5,1.51-7.52.17-1.27.47-2.54.64-3.83s.41-2.58.71-3.87c.2,1.3.3,2.61.41,3.93s0,2.64,0,4-.23,2.63-.34,4-.48,2.61-.72,3.92a26,26,0,0,1-3.11,7.45A13.4,13.4,0,0,1,77.83,74,6.73,6.73,0,0,1,74.16,75.6Z" transform="translate(-9.01 0)"/><path class="cls-2" d="M87.18,75a11.61,11.61,0,0,0,3.08-2.37,18.16,18.16,0,0,0,2.35-3,28.84,28.84,0,0,0,1.77-3.34c.23-.6.49-1.17.74-1.76s.39-1.21.59-1.81a14.44,14.44,0,0,0,.55-1.84l.49-1.86.78-3.81c.18-1.29.46-2.58.65-3.88s.37-2.61.65-3.94c.22,1.32.34,2.66.47,4s0,2.68,0,4-.28,2.68-.43,4l-.45,2a15.12,15.12,0,0,1-.54,2A20.89,20.89,0,0,1,94,70.73a15.67,15.67,0,0,1-1.43,1.51A15.39,15.39,0,0,1,91,73.52,8.72,8.72,0,0,1,87.18,75Z" transform="translate(-9.01 0)"/><path class="cls-2" d="M99.05,75.8a11.85,11.85,0,0,0,5.82-5.32,16.19,16.19,0,0,0,.94-1.74l.44-.89.35-.94a34.73,34.73,0,0,0,1.27-3.81,77.39,77.39,0,0,0,1.62-8c.16-1.36.45-2.72.59-4.1s.35-2.76.62-4.15c.23,1.39.37,2.79.5,4.19s.07,2.81.07,4.23c0,.35,0,.7,0,1.06l-.11,1-.22,2.12a18.91,18.91,0,0,1-.39,2.1c-.15.7-.27,1.41-.46,2.1a22.74,22.74,0,0,1-3.75,7.79,13,13,0,0,1-3.19,3A7.82,7.82,0,0,1,99.05,75.8Z" transform="translate(-9.01 0)"/><path class="cls-2" d="M131.14,76a14.16,14.16,0,0,0,4.91-6.41c.28-.61.51-1.25.73-1.89a14.11,14.11,0,0,0,.61-1.94c.15-.66.4-1.29.52-2l.4-2c.26-1.34.45-2.7.63-4.07s.32-2.75.42-4.13.25-2.78.32-4.19.16-2.8.34-4.23c.33,1.39.55,2.79.78,4.2s.26,2.84.34,4.26,0,2.86,0,4.3-.3,2.86-.54,4.28a25.82,25.82,0,0,1-2.93,8.2,15.64,15.64,0,0,1-2.7,3.47A8.51,8.51,0,0,1,131.14,76Z" transform="translate(-9.01 0)"/><path class="cls-2" d="M159.81,76.67a9.77,9.77,0,0,1-4.23-1.81,14.75,14.75,0,0,1-3.34-3.29,22.88,22.88,0,0,1-3.85-8.48,16.27,16.27,0,0,1-.45-2.27c-.12-.76-.25-1.52-.35-2.29-.05-1.53-.22-3.06-.16-4.58s.13-3.05.32-4.56.48-3,.82-4.47c.17,1.52.23,3,.3,4.51s.26,3,.34,4.45.35,2.93.52,4.38l.4,2.16a17.22,17.22,0,0,0,.47,2.13l.54,2.1c.24.68.5,1.35.72,2a26.52,26.52,0,0,0,1.85,3.88c.32.65.8,1.18,1.18,1.8A20,20,0,0,0,156.3,74,12.52,12.52,0,0,0,159.81,76.67Z" transform="translate(-9.01 0)"/><path class="cls-2" d="M170.68,79.78a13,13,0,0,1-4.34-2.46,18.83,18.83,0,0,1-1.85-1.72c-.59-.61-1.08-1.3-1.63-1.95a27.24,27.24,0,0,1-4.24-9.16,39.73,39.73,0,0,1-1-4.93c-.15-.83-.13-1.67-.2-2.5s-.09-1.66-.11-2.49c.06-1.66.13-3.32.28-5s.5-3.27.84-4.88c.16,1.66.22,3.29.28,4.91s.29,3.24.37,4.85a64.06,64.06,0,0,0,1.71,9.42,34.17,34.17,0,0,0,3.51,8.77,27.39,27.39,0,0,0,2.77,3.85A18.2,18.2,0,0,0,170.68,79.78Z" transform="translate(-9.01 0)"/><path class="cls-2" d="M179.84,74.05a9.59,9.59,0,0,1-4.2-1.45,14.86,14.86,0,0,1-1.86-1.31c-.55-.52-1.11-1-1.61-1.61a20.59,20.59,0,0,1-4.16-8l-.31-1.08-.21-1.1-.41-2.2c-.09-1.48-.28-2.95-.26-4.43s.07-2.94.23-4.4.43-2.9.75-4.33c.19,1.47.28,2.91.37,4.35s.32,2.85.42,4.27.42,2.81.63,4.21l.45,2.05.22,1,.31,1a24.59,24.59,0,0,0,3.37,7.53c.38.58.84,1.09,1.25,1.65a18.54,18.54,0,0,0,1.47,1.47A12.91,12.91,0,0,0,179.84,74.05Z" transform="translate(-9.01 0)"/><path class="cls-2" d="M50.43,85.82c-.44.35-10.8,8.84-7,21.89,2.21,7.57-.42,11.74-3,15.79-2,3.18-4.06,6.47-4,11.71,0,3.26,1.09,6.75,2.19,10.44,2.9,9.67,6.15,20.56-8,30.8a14.12,14.12,0,0,0-2.49-1c14.13-9.58,11.17-19.51,8.28-29.13-1.14-3.85-2.23-7.48-2.28-11.06-.09-5.91,2.26-9.65,4.32-13,2.49-4,4.62-7.37,2.71-13.94C37,93.8,48.88,84.13,49,84a1.13,1.13,0,0,1,1.6.17A1.15,1.15,0,0,1,50.43,85.82Z" transform="translate(-9.01 0)"/><path class="cls-2" d="M64.66,177.09c-1.16.28-2.37.55-3.61.82a12.45,12.45,0,0,0,3-14.3c-.71-1.77-1.47-3.43-2.21-5-3.47-7.48-6.46-13.92,2.78-22.65a1.15,1.15,0,0,1,1.62.05,1.13,1.13,0,0,1,0,1.6c-8.06,7.61-5.77,12.55-2.29,20,.76,1.63,1.53,3.31,2.26,5.13A14.31,14.31,0,0,1,64.66,177.09Z" transform="translate(-9.01 0)"/><path class="cls-2" d="M192.37,175.14c-.92.42-1.88.82-2.85,1.19,1.46-3.19,2.86-8.49-.7-13.44-5.65-7.83-11.25-18.53-4.37-31.88a1.14,1.14,0,1,1,2,1.05c-6.27,12.17-1.4,21.73,4.19,29.49C194.12,166.33,193.61,171.43,192.37,175.14Z" transform="translate(-9.01 0)"/><path class="cls-2" d="M218.14,169.6c-.74,0-1.5-.07-2.29-.09a35.54,35.54,0,0,0-1.36-13.14,21.24,21.24,0,0,0-5.37-8.23c-2.78-3-5.67-6.11-6.15-13.42-.4-6.29,1.91-10.27,4.14-14.12,2.16-3.69,4.18-7.18,3.45-12.6-.78-5.71-3.2-9.44-6-13.76A54.26,54.26,0,0,1,197,78.83a1.14,1.14,0,0,1,2.19-.64c1.92,6.55,4.65,10.75,7.28,14.8,2.84,4.36,5.51,8.48,6.36,14.7s-1.49,10.2-3.73,14-4.2,7.24-3.84,12.83c.42,6.5,2.8,9.06,5.55,12a23.66,23.66,0,0,1,5.85,9.06A37.56,37.56,0,0,1,218.14,169.6Z" transform="translate(-9.01 0)"/><path class="cls-3" d="M149.64,249.81,131.28,237a2.49,2.49,0,0,0,.23-.21h0c2.35-2.22,21.54-20.13,34-31.37,5.18-4.65,5.21-4.58,6.36-5.32,2.79-1.8,10.55,6,13,14.56,2.13,7.38-3.07,9.44-8.69,13.77l-26.56,21.39" transform="translate(-9.01 0)"/><path class="cls-3" d="M113.42,250,85.08,227.88c-5-3.81-7.08-7-4.63-12.74,3.35-7.87,9.47-14.66,12.38-13.11,1.55.83,1.9,1.75,5.68,5.25C111.66,219.44,130.69,237,130.69,237l-17.27,13" transform="translate(-9.01 0)"/><path class="cls-4" d="M165.51,205.41c-12.45,11.24-31.64,29.15-34,31.37h0l-.81.21h0s-18.91-17.68-32.18-29.71l3.17-22.45,3.1-25.62c6.39,2.52,12.22,4.95,19.51,4.95,11.66,0,21.89-2.09,30.88-8.16l5.3,23.84Z" transform="translate(-9.01 0)"/><path class="cls-5" d="M160.47,179.84a57.42,57.42,0,0,1-58.79,5l3.39-27.08c6.39,2.52,11.64,4.37,18.93,4.37,11.66,0,22.18-2.38,31.17-8.45Z" transform="translate(-9.01 0)"/><path class="cls-5" d="M194.21,111.14c0,8-7.88,14.57-15,14.57s-10.68-6.52-10.68-14.57,5.74-14.56,12.82-14.56C191.59,96.58,194.21,103.1,194.21,111.14Z" transform="translate(-9.01 0)"/><path class="cls-5" d="M83.17,111.14c0,8-3.31,14.57-10.39,14.57s-15.24-6.52-15.24-14.57,2.62-14.56,12.81-14.56C77.43,96.58,83.17,103.1,83.17,111.14Z" transform="translate(-9.01 0)"/><path class="cls-4" d="M181.39,69.78V113a56.45,56.45,0,0,1-24.24,46.49l-.38.27a55.38,55.38,0,0,1-51.58,5.7c-.72-.27-1.42-.57-2.11-.88A56.41,56.41,0,0,1,69.82,113V72.14a18.26,18.26,0,0,0,6.47,1.24c4,0,8.76-6.86,14-6.87,4.37,0,9.07,6.85,14,6.86,3.8,0,7.72-4.81,11.67-6.37q2.09-17.47,5.83-34.68c.9,12.48,1.79,25,3.17,37.42,2.43,1.78,4.85,3.64,7.27,3.65,4.74,0,9.45-6.83,14-6.82,4.89,0,9.59,6.85,14,6.87,5.2,0,9.94-6.84,14-6.83A8.76,8.76,0,0,1,181.39,69.78Z" transform="translate(-9.01 0)"/><path class="cls-6" d="M115.85,127.25a1.25,1.25,0,0,1-1.2-1.63l8.16-25.92a1.24,1.24,0,0,1,1.57-.83,1.26,1.26,0,0,1,.82,1.58l-7.45,23.67,12.3-3.69a1.25,1.25,0,0,1,.72,2.4l-14.56,4.37A1.12,1.12,0,0,1,115.85,127.25Z" transform="translate(-9.01 0)"/><path class="cls-6" d="M88.17,85.6a1.26,1.26,0,0,1-1-2c.16-.2,3.95-4.94,11.83-5.14,6.88-.2,9.95,3,10.08,3.11a1.26,1.26,0,0,1-1.83,1.72c-.09-.09-2.49-2.47-8.18-2.33-6.71.18-9.89,4.15-9.92,4.18A1.26,1.26,0,0,1,88.17,85.6Z" transform="translate(-9.01 0)"/><path class="cls-6" d="M124.29,144.25a16.63,16.63,0,0,1-12.22-5.31,1.24,1.24,0,0,1,.15-1.76,1.25,1.25,0,0,1,1.77.15h0a14.41,14.41,0,0,0,10.3,4.41c6.56,0,11.31-4.64,11.35-4.69a1.27,1.27,0,0,1,1.78,0,1.25,1.25,0,0,1,0,1.77C137.19,139.05,131.91,144.25,124.29,144.25Z" transform="translate(-9.01 0)"/><circle class="cls-6" cx="91.69" cy="103.47" r="3.79"/><path class="cls-6" d="M157.24,85.6a1.28,1.28,0,0,1-1-.48c-.14-.17-3.28-4-9.92-4.19-5.72-.15-8.09,2.24-8.19,2.34a1.26,1.26,0,0,1-1.82-1.73c.12-.13,3.2-3.29,10.07-3.11,7.88.2,11.68,4.94,11.83,5.14a1.26,1.26,0,0,1-1,2Z" transform="translate(-9.01 0)"/><circle class="cls-6" cx="135.7" cy="103.47" r="3.79"/></svg>