<svg id="Capa_1" data-name="Capa 1" xmlns="http://www.w3.org/2000/svg" viewBox="0 0 166.12 250"><defs><style>.cls-1{fill:#1b1b1b;}.cls-2{fill:#c05e17;}.cls-3{fill:#2a2a2b;}.cls-4{fill:#fdd6ac;}.cls-5{fill:#f9be94;}.cls-6{fill:#2b2c2d;}.cls-7{fill:#1e1e1c;}.cls-8{fill:none;stroke:#964191;stroke-linecap:round;stroke-linejoin:round;stroke-width:3px;}</style></defs><path class="cls-1" d="M61.36,179.32c-.58,12.45,2.94,24.92,9.11,35.74s14.92,20,24.83,27.59c-4.82-5.39-7.45-12.4-9.22-19.42a103,103,0,0,1-1.56-42.92c.48,17.3,2.58,35.11,11,50.2a24.35,24.35,0,0,0,6.58,8.09c5.84,4.22,13.74,3.69,20.91,3,9.24-.92,20.19-4.39,29.34-3,7.68,1.17,17.44,1.44,22.72-5.52,1.9-2.48,2.79-5.58,3.48-8.63a89.73,89.73,0,0,0,.5-37,261,261,0,0,1,7.76,29.23c1.94,9.54,3.2,20-1.6,28.49a41.22,41.22,0,0,0,15.66-21.66c1.71-5.68,2.17-11.65,2.38-17.58.85-23.42-2.45-48.24-16.67-66.88-9.18-12-22.22-20.56-35.81-27.21-9.92-4.85-20.41-8.87-31.39-10.05s-22.55.69-31.74,6.82c-7.54,5-13.09,12.64-16.87,20.88s-5.92,17.11-7.73,26" transform="translate(-51.86)"/><path class="cls-2" d="M32,176.11" transform="translate(-51.86)"/><path class="cls-3" d="M55.38,70.29c1.29-27.15,16.43-50.4,39.59-62a80.31,80.31,0,0,1,51.18-6.78C214.22-2.2,216.7,61.25,218,86.13l-3.87,109.48c1.91,28.56-14.2,41.7-14.2,41.7-4.6,6.12,5-6.64,1-15.17-3.7-7.79-7.65-18.26-11.76-26.14a100.4,100.4,0,0,1-9.34-26.12c-3.09-14.88-2.82-30.37-6.1-45.2-3.13-14.15-11.72-31.22-25.52-36.8-6.95-2.81-18,.46-25,2.24A85.54,85.54,0,0,0,97.83,101c-10.9,7-20.76,18.24-19.86,32.6C80.55,175,65.38,180.79,70.55,210s21.61,39,21.61,39c-41.3,2.72-40.29-56.52-40.29-56.52" transform="translate(-51.86)"/><path class="cls-4" d="M177.84,237.72a86.87,86.87,0,0,1-79,5.13L103.53,208l3.53-33.62.12.05c7.23,3.29,13.85,6.44,22.11,6.44,13.28,0,24.92-2.74,35.17-10.7l6,31.29Z" transform="translate(-51.86)"/><path class="cls-5" d="M170.48,201.43a59.45,59.45,0,0,1-38.21,14.21A57.94,57.94,0,0,1,103.53,208l3.86-35.54c7.28,3.31,13.26,5.74,21.56,5.74,13.28,0,25.26-3.12,35.5-11.09Z" transform="translate(-51.86)"/><path class="cls-4" d="M184.52,125.11c0,20.78-9.59,39.11-24.23,50.06l-.39.28a52.46,52.46,0,0,1-31.17,10.34,51.55,51.55,0,0,1-20.4-4.2c-.72-.29-1.42-.61-2.11-1-19.59-9.42-37.08-26.45-34.2-53.9,1.42-13.53,2-30,5-45.49A221.72,221.72,0,0,0,108.2,69.36c14.9-7.22,28.48-15.23,38-28.75,6.78,13.76,17.61,23.53,30.26,32.2q3.36,2.3,6.91,4.34C184.78,92.2,184.52,110.25,184.52,125.11Z" transform="translate(-51.86)"/><path class="cls-6" d="M121.85,135.06a1.37,1.37,0,0,1-1-.41,1.4,1.4,0,0,1-.34-1.39l9-28.72a1.39,1.39,0,1,1,2.65.84L124,131.59l13.62-4.09a1.39,1.39,0,0,1,.8,2.67L122.25,135A1.39,1.39,0,0,1,121.85,135.06Z" transform="translate(-51.86)"/><path class="cls-3" d="M91.2,88.93a1.4,1.4,0,0,1-1.1-2.25c.18-.22,4.38-5.46,13.11-5.69,7.61-.22,11,3.3,11.16,3.45a1.39,1.39,0,0,1-2,1.9c-.1-.1-2.75-2.73-9.06-2.58-7.43.2-11,4.59-11,4.63A1.38,1.38,0,0,1,91.2,88.93Z" transform="translate(-51.86)"/><path class="cls-6" d="M131.21,153.88A18.45,18.45,0,0,1,117.67,148a1.39,1.39,0,1,1,2.12-1.79h0a15.94,15.94,0,0,0,11.42,4.88c7.25,0,12.51-5.13,12.56-5.18a1.39,1.39,0,0,1,2,2C145.49,148.13,139.64,153.88,131.21,153.88Z" transform="translate(-51.86)"/><circle class="cls-7" cx="53.21" cy="108.72" r="4.19"/><path class="cls-3" d="M167.69,88.93a1.37,1.37,0,0,1-1.09-.53c-.15-.19-3.64-4.44-11-4.64-6.33-.17-9,2.48-9.07,2.59a1.41,1.41,0,0,1-2,0,1.39,1.39,0,0,1-.06-2c.14-.15,3.54-3.65,11.16-3.45,8.73.23,12.93,5.47,13.1,5.69a1.38,1.38,0,0,1-.23,1.95A1.41,1.41,0,0,1,167.69,88.93Z" transform="translate(-51.86)"/><circle class="cls-7" cx="101.95" cy="108.72" r="4.19"/><path class="cls-8" d="M105,193.47s32.08,20.36,64.62-6.55" transform="translate(-51.86)"/></svg>