<svg id="Capa_1" data-name="Capa 1" xmlns="http://www.w3.org/2000/svg" viewBox="0 0 247.83 250"><defs><style>.cls-1{fill:#fab94a;}.cls-2{fill:#f7a954;}.cls-3{fill:#f9cfb6;}.cls-4{fill:#f7b89f;}.cls-5{fill:#2b2c2d;}</style></defs><path class="cls-1" d="M233.79,247.06a150.48,150.48,0,0,1-34.19-4.28c-3.06-.73-6.41-1.68-9.89-2.74-23.08-7-52.59-19.71-52.59-19.71s-20.13,17-53.79,23.32a135.08,135.08,0,0,1-19.69,2.21c-14.77.57-38.15,7.38-52.23,2.21C-1.42,243.37-.08,228,4.11,215.4c.82-2.46,1.85-4.92,1.92-7.52.09-3.34-1.41-6.47-2.53-9.61-4.08-11.5-3.13-26.73,3.91-37C14.7,150.61,23,151,20.78,135.67,18.65,120.55,16.35,106,26.9,93.09c3.28-4,7.6-7.08,10.91-11.07,7.51-9.08,8.84-21.58,10.65-33.23,3.4-22,17-38.52,38.5-45.82,24.65-8.34,45.77,3.53,45.77,3.53,28.32-10.24,55.66-1.31,70.38,25.23,12.7,22.89,9.33,50.61,21.13,73.78,4.74,9.32,9.18,15.8,9.06,26.58-.16,13.83-8.1,26.43-7.35,40.31a9.38,9.38,0,0,0,1,4.25,12,12,0,0,0,3.67,3.45c6.76,4.87,13,11.94,12.89,20.27-.07,5.61-3.05,11.19-1.63,16.62.72,2.79,2.53,5.14,3.89,7.68a26.62,26.62,0,0,1,1.34,22.07C242.56,247,238.14,247.11,233.79,247.06Z" transform="translate(-1.09 0)"/><path class="cls-2" d="M185.27,200c-1.7,4.19-4.45,8.11-4.88,12.6-.51,5.3,2.25,9.91,4.32,14.56.71,1.6,3.61,12.43,5,12.85-23.08-7-52.59-19.71-52.59-19.71s-20.13,17-53.79,23.31c-1.83.34-4.15-12.7-4.3-13.83a38.1,38.1,0,0,1,2-18c1.39-3.77,3.41-7.4,3.79-11.4.75-7.92-4.87-14.8-8.23-22-11.8-25.28,5-52.33,28.54-62.29,9.6-4.07,19.81-4.82,29.65-8,7.22-2.3,12.11-3.85,19.32-.14,4.08,2.1,6.14,5,9,8.27,2.33,2.66,5.25,4.24,7.85,6.67a27.27,27.27,0,0,1,8.72,21.23c-.51,8.15-4.76,16.08-3.33,24.12,1.72,9.61,11.27,17.32,10.19,27A17.52,17.52,0,0,1,185.27,200Z" transform="translate(-1.09 0)"/><path class="cls-3" d="M176.5,235.39a88.86,88.86,0,0,1-80.84,5.25L100.49,205l3.62-34.39.12.05c7.39,3.38,14.16,6.6,22.62,6.6,13.58,0,25.48-2.81,36-10.95l6.16,32Z" transform="translate(-1.09 0)"/><path class="cls-4" d="M169,198.27a60.8,60.8,0,0,1-39.09,14.54,59.43,59.43,0,0,1-29.4-7.84l4-36.36c7.44,3.39,13.56,5.87,22,5.87,13.59,0,25.84-3.19,36.31-11.34Z" transform="translate(-1.09 0)"/><path class="cls-3" d="M182.3,132.08a62.62,62.62,0,0,1-23.75,39.33c-.13.11-.26.18-.4.29a53.62,53.62,0,0,1-31.87,10.58A52.66,52.66,0,0,1,105.4,178c-.73-.3-1.44-.62-2.15-1-20-9.63-37.65-27-36.53-55.23a201.33,201.33,0,0,1,2.6-24.34,2.39,2.39,0,0,1,.05-.36c.7-.92,1.36-1.78,1.95-2.47a9,9,0,0,1,1.1-1.12c5.92-4.85,14.75-4.2,20.25-9.7C100.36,76.1,96,61,104.32,54c5.76-4.82,14.51-3.06,21.48-5.85A17.53,17.53,0,0,0,136.1,36a17.51,17.51,0,0,0,10.17,16.47c4.19,1.78,8.88,1.81,13.35,2.63,7.23,1.34,14.62,5.59,16.64,12.66,2.2,7.69-2.6,16.15-.17,23.78a11.5,11.5,0,0,0,.47,1.23c.4,1,.9,2,1.39,2.93a17.11,17.11,0,0,1,2.32,6.4c.24,3.08-1.15,6-1.87,9C176.67,118.25,178.84,125.37,182.3,132.08Z" transform="translate(-1.09 0)"/><path class="cls-5" d="M117.25,130.06a1.44,1.44,0,0,1-1-.42,1.42,1.42,0,0,1-.34-1.43l9.24-29.37a1.42,1.42,0,1,1,2.71.86l-8.43,26.81,13.93-4.18a1.42,1.42,0,1,1,.81,2.72l-16.5,5A1.4,1.4,0,0,1,117.25,130.06Z" transform="translate(-1.09 0)"/><path class="cls-1" d="M87.88,83.2a1.43,1.43,0,0,1-.87-.3,1.41,1.41,0,0,1-.24-2c.17-.23,4.47-5.59,13.4-5.83,7.78-.22,11.27,3.38,11.41,3.53a1.42,1.42,0,1,1-2.07,1.94c-.1-.1-2.82-2.79-9.27-2.63-7.6.2-11.2,4.69-11.24,4.74A1.4,1.4,0,0,1,87.88,83.2Z" transform="translate(-1.09 0)"/><path class="cls-5" d="M126.16,150a18.87,18.87,0,0,1-13.84-6,1.42,1.42,0,1,1,2.17-1.84h0a16.29,16.29,0,0,0,11.67,5c7.43,0,12.81-5.25,12.86-5.31a1.42,1.42,0,0,1,2,2C140.78,144.09,134.79,150,126.16,150Z" transform="translate(-1.09 0)"/><circle class="cls-5" cx="98.68" cy="103.12" r="4.29"/><path class="cls-1" d="M160.84,83.2a1.39,1.39,0,0,1-1.11-.54c-.16-.19-3.72-4.54-11.25-4.74-6.47-.17-9.16,2.53-9.27,2.64a1.43,1.43,0,0,1-2,0,1.42,1.42,0,0,1-.06-2c.15-.15,3.63-3.73,11.42-3.53,8.93.24,13.22,5.6,13.4,5.83a1.42,1.42,0,0,1-.24,2A1.44,1.44,0,0,1,160.84,83.2Z" transform="translate(-1.09 0)"/><path class="cls-5" d="M144.72,102.9A4.29,4.29,0,1,0,149,98.61,4.29,4.29,0,0,0,144.72,102.9Z" transform="translate(-1.09 0)"/><path class="cls-5" d="M178,95.67c-.49-1-1-1.94-1.39-2.93-1.65.62-3.31,1.28-4.94,1.92-2,.79-4.07,1.62-6.1,2.38a17.12,17.12,0,0,0-32.4,1.84,14.07,14.07,0,0,0-8.47-3.56,13.19,13.19,0,0,0-8.69,3,17.13,17.13,0,0,0-32.51-.56L71.32,94.61c-.59.69-1.25,1.55-1.95,2.47a2.39,2.39,0,0,0-.05.36l13.41,3.47a16,16,0,0,0-.14,2,17,17,0,0,0,34.05,0c0-.21,0-.4,0-.61h0a9.67,9.67,0,0,1,7.92-3.74,10.89,10.89,0,0,1,8.08,4.63,17,17,0,1,0,33.8-3c2.18-.81,4.46-1.72,6.45-2.51C174.46,97,176.22,96.32,178,95.67ZM99.61,116.31a13.4,13.4,0,1,1,13.74-13.4A13.58,13.58,0,0,1,99.61,116.31Zm50,0a13.4,13.4,0,1,1,13.74-13.4A13.59,13.59,0,0,1,149.61,116.31Z" transform="translate(-1.09 0)"/></svg>