<svg xmlns="http://www.w3.org/2000/svg" viewBox="0 0 410 197.94"><defs><style>.cls-1{fill:#ec1d36;}</style></defs><g id="Capa_2" data-name="Capa 2"><path class="cls-1" d="M901.54,531.05q19.58-3.09,26.22,6.38a22.89,22.89,0,0,1,3.62,8q1.53,6.54-1.5,16.86t-14.64,17.19q10.6,1.17,13.63,13.53l.08.33q2.84,12.2-4.26,26T897.5,638.83a10.7,10.7,0,0,1-9-2.53,9.84,9.84,0,0,1-3.06-5.25,15.91,15.91,0,0,1-.32-4.71,32.6,32.6,0,0,0,8.95-.75q6.53-1.53,13.31-7.39a26.37,26.37,0,0,0,8.66-15,15.28,15.28,0,0,0,.07-6.62,12.1,12.1,0,0,0-5.37-7.32,7.94,7.94,0,0,0-3.07-.54,13.65,13.65,0,0,0-3.78.39c-.57.13-1.5.41-2.79.82a11,11,0,0,0-4.36,3.45l-2.78,29.87q-7.4-.66-11.37-3.88a9,9,0,0,1-2.73-5,33.51,33.51,0,0,1-.48-9.58q.24-2.87.75-7.91,1-9.36,1.8-19.8t0-14.81q13-1,15.53,9.65a26.64,26.64,0,0,1,.57,7q12.36-10,17.66-20.63,2.67-5.4,1.83-9c-.53-2.26-2.13-4-4.79-5.2a27.05,27.05,0,0,0-10.38.39q-8.06,1.88-18.11,11T874,579.55q-8.16-6.66-9.81-13.72t3.5-14.8q10-14.4,32.29-19.62Z" transform="translate(-755 -441.03)"/><path class="cls-1" d="M942.26,615.31a25.45,25.45,0,0,1-5-10.36,40.44,40.44,0,0,1-.37-14.81q2.14-15.74,11.88-26.09a21.74,21.74,0,0,1,10-5.85,18.48,18.48,0,0,1,11.2,1c2.69,1.11,4.42,3.32,5.2,6.65a20.45,20.45,0,0,1,.48,3.55q.39,8-8.06,19.93-7.57,11.75-16.71,17.46l.26.5a3,3,0,0,0,2.93,2,13.5,13.5,0,0,0,3.26-.16,19.11,19.11,0,0,0,6.87-3.65q5.4-4,11.79-14.48l.07,0c.18,0,.37.29.58,1l.11.47a21,21,0,0,1,.43,3.06,25.68,25.68,0,0,1-.08,4.62,12.46,12.46,0,0,1-1.25,4.4,19.77,19.77,0,0,1-7.41,8.89,31.59,31.59,0,0,1-11.26,5.3,24.5,24.5,0,0,1-2.56.46A14.2,14.2,0,0,1,942.26,615.31Zm23.57-46.1a5.84,5.84,0,0,0-1.29.16c-2,.46-3.89,2-5.82,4.59a46.44,46.44,0,0,0-5.94,11.54,52.5,52.5,0,0,0-3,12.33,54.65,54.65,0,0,0,9.34-10.54,59.28,59.28,0,0,0,6.36-11c1.18-3,1.66-4.93,1.42-6A1.45,1.45,0,0,0,965.83,569.21Z" transform="translate(-755 -441.03)"/><path class="cls-1" d="M1020.81,552.36A44.06,44.06,0,0,0,1001.89,572q-6.27,12.7-4.16,24.43c.25,1.07.64,1.63,1.17,1.7a3.92,3.92,0,0,0,1.13,0,2,2,0,0,0,1.18-1Q1008,583,1015.8,559.78q6.76,1.31,9.68,3.85a10.36,10.36,0,0,1,3.56,5.28,13.74,13.74,0,0,1,.07,5.11l-2.87,28.63-4.86-1.54a8.35,8.35,0,0,1-.85-.36,14.46,14.46,0,0,1-4.36-2.25,6.5,6.5,0,0,1-2.25-3.79,12.26,12.26,0,0,1-.22-1.21c-.25-2.29.19-5.71,1.33-10.29l-4.8,16.16c-1.78,4.81-3.72,7.53-5.83,8.13s-3.24.94-3.42,1q-5.79,1.35-12.2-4.11a25.38,25.38,0,0,1-4.93-10.29,40.44,40.44,0,0,1-.37-14.81q2.14-15.81,11.87-26.16a24,24,0,0,1,10.91-6.2,16.07,16.07,0,0,1,2.58-.39Q1016,545.89,1020.81,552.36Z" transform="translate(-755 -441.03)"/><path class="cls-1" d="M1063.21,533.61q7.49-.14,11.09,2.82a12.58,12.58,0,0,1,4.54,6.94,24.46,24.46,0,0,1,.44,7l-2.77,40.47q-8-.58-10.89-3a10.09,10.09,0,0,1-3.58-5.41,30.12,30.12,0,0,1,0-10.69l-6.53,21.06q-1.66,3.4-4.53,4.07a7.56,7.56,0,0,1-2.79.09,23.7,23.7,0,0,1-10.44-5,9.34,9.34,0,0,1-2.33-4.59,23.93,23.93,0,0,1-.51-5.78,149.69,149.69,0,0,1,1.25-16.3q1-7.32,1.26-13.4a37,37,0,0,0-.6-9.94c-.13-.57-.29-1.12-.45-1.65q9-.12,12.55,2.94a12.48,12.48,0,0,1,4.42,6.58,24.41,24.41,0,0,1,.11,8.9l-3.08,28.6,12.16-35.43c0-1.3.08-3.46.32-6.46.15-2.15.27-4.28.36-6.41A47.37,47.37,0,0,0,1063.21,533.61Z" transform="translate(-755 -441.03)"/><path class="cls-1" d="M1120.88,509.46l.53-.12a3.85,3.85,0,0,1,2.72.21,2.3,2.3,0,0,1,1.32,1.62,1.54,1.54,0,0,1-.76,1.69l-19.93,7.6-3.45,50.47,4.56-13.22a1.66,1.66,0,0,1,1.15-.83,4.86,4.86,0,0,1,1.26,0,4.13,4.13,0,0,1,2.12,1,2.34,2.34,0,0,1,.94,1.32,2.3,2.3,0,0,1,0,1l-6.58,21.13a6.28,6.28,0,0,1-4.23,3.87l-1.84.36q-1.65.32-5.58-1.78-2.88-.88-6.19-4.53a8.18,8.18,0,0,1-1.78-3.73q-1.07-4.53,0-12.86.24-2.86,1-13.05t1.55-22.66l-3,1.11a44.62,44.62,0,0,1-5.5,1.71c-5.68,1.33-8.93.28-9.72-3.14a12.17,12.17,0,0,1,.14-5.09,100.53,100.53,0,0,0,17.46-2.81l1.14-.27q.62-9.69.85-16.63a57.42,57.42,0,0,0-.06-8.56q13.17-1,15.75,10a30.38,30.38,0,0,1,.55,8.65l-.15,2.07Q1112.86,511.83,1120.88,509.46Z" transform="translate(-755 -441.03)"/><path class="cls-1" d="M1127,604.39q.67-.09,1.35-.24a22.71,22.71,0,0,0,14.72-11,61.82,61.82,0,0,0,7.68-21.39,120.55,120.55,0,0,0,2-21.36q-.08-9.36-.79-12.42l-.13-.54q-1.17,13.35-3.69,20a85.47,85.47,0,0,1-8.21,15.41,9.22,9.22,0,0,1-5.69,4.2,10.89,10.89,0,0,1-3.32.22,21.72,21.72,0,0,1-11.34-4.66,9.48,9.48,0,0,1-2.35-4.65,23.18,23.18,0,0,1-.49-5.71A141.19,141.19,0,0,1,1118,546q.93-7.38,1.25-13.43a36.4,36.4,0,0,0-.59-9.9c-.14-.58-.29-1.13-.46-1.65q9-.19,12.54,2.86a12.61,12.61,0,0,1,4.44,6.66,24.58,24.58,0,0,1,.11,8.89L1132.22,568a75.75,75.75,0,0,0,8.64-17.93,152.16,152.16,0,0,0,4.84-23,3.61,3.61,0,0,1,2.76-2.33l.33-.07q10.71-1.95,14.34,13.57,3.25,13.92.85,41.81-2.73,19.61-9.22,24.28t-9.56,5.39Q1137.07,611.61,1127,604.39Z" transform="translate(-755 -441.03)"/><path class="cls-1" d="M764.06,527.23q4.63,4.83,10.09,5a33.74,33.74,0,0,0,7.19-.2Q788.47,530.39,795,521a5.33,5.33,0,0,0,.58-3.85l-.11-.47q-.63-2.1-4.14-3.6l-23.08-8.58q-7.29-2.94-9.88-6.2A15.09,15.09,0,0,1,755.3,493q-1-4.4,1.48-10.81,11.85-28.34,34.67-33.81a26.81,26.81,0,0,1,8.11-.14,14.87,14.87,0,0,1,10.23,11.31q1.79,7.67-1.64,20.05c-1.25,3.29-2.89,5.31-4.94,6.07s-3.34,1.2-3.87,1.32a7.91,7.91,0,0,1-7.35-1.72,1.1,1.1,0,0,1-.26-.5,1,1,0,0,1,0-.35,3.7,3.7,0,0,1,.16-.95l.18-.6q6.59-14.82,6.14-17.91c-.3-2.06-.48-3.25-.55-3.56-.67-2.84-2.15-4-4.46-3.45l-.47.11q-9.27,6-13.34,14.14a61.84,61.84,0,0,0-5.4,14.19,6.62,6.62,0,0,0,.16,1.86,4.92,4.92,0,0,0,2.19,3.07,34.17,34.17,0,0,0,7.86,3.57q16,5,22.11,9.86t7.3,9.89a18.7,18.7,0,0,1,0,7.72q-1.2,7.15-9.27,15.19T790.2,548.2a63.09,63.09,0,0,1-8.23,3.09q-7.07,1.65-12.28-1.77-3.57-2.32-4.94-8.19A48.63,48.63,0,0,1,764.06,527.23Z" transform="translate(-755 -441.03)"/><path class="cls-1" d="M819.71,519.85q.42-5.43,1.58-22.84t2-34.46q.79-17,0-21.43,13.17-1,15.75,10a30.35,30.35,0,0,1,.55,8.65L834.51,539Q827,538.3,824,535.81a10.88,10.88,0,0,1-3.83-6A34.34,34.34,0,0,1,819.71,519.85Z" transform="translate(-755 -441.03)"/><path class="cls-1" d="M848.83,528.72a25.49,25.49,0,0,1-5-10.37,40.38,40.38,0,0,1-.37-14.8q2.15-15.75,11.89-26.1a21.66,21.66,0,0,1,10-5.85,18.49,18.49,0,0,1,11.2,1c2.69,1.1,4.43,3.32,5.2,6.65a20.46,20.46,0,0,1,.48,3.54q.39,8-8.06,19.94-7.58,11.75-16.71,17.46l.26.5a3,3,0,0,0,2.93,2,13.38,13.38,0,0,0,3.26-.17,19.33,19.33,0,0,0,6.88-3.64q5.39-4,11.78-14.48l.07,0c.18,0,.37.29.58,1l.11.46a22.25,22.25,0,0,1,.44,3.06,27.63,27.63,0,0,1-.08,4.62,12.56,12.56,0,0,1-1.26,4.4,19.83,19.83,0,0,1-7.4,8.9,31.89,31.89,0,0,1-11.27,5.3,24.5,24.5,0,0,1-2.56.46A14.23,14.23,0,0,1,848.83,528.72Zm23.57-46.11a6.5,6.5,0,0,0-1.29.16c-2,.46-3.89,2-5.81,4.59a46.63,46.63,0,0,0-5.95,11.54,52.74,52.74,0,0,0-3,12.33,54,54,0,0,0,9.34-10.54,58.64,58.64,0,0,0,6.36-11c1.18-2.94,1.66-4.93,1.42-6A1.45,1.45,0,0,0,872.4,482.61Z" transform="translate(-755 -441.03)"/><path class="cls-1" d="M895.4,517.84a25.51,25.51,0,0,1-4.95-10.36,40.45,40.45,0,0,1-.37-14.81q2.16-15.75,11.89-26.1a21.71,21.71,0,0,1,10-5.85,18.48,18.48,0,0,1,11.2,1q4,1.65,5.21,6.65a20.5,20.5,0,0,1,.47,3.54q.39,8-8.05,19.94-7.59,11.75-16.72,17.46l.26.5a3,3,0,0,0,2.93,2,13.35,13.35,0,0,0,3.26-.17,19.17,19.17,0,0,0,6.88-3.64q5.39-4,11.79-14.48l.06,0c.18,0,.38.29.59,1l.11.46a22.45,22.45,0,0,1,.43,3.06,26.61,26.61,0,0,1-.08,4.62,12.26,12.26,0,0,1-1.26,4.41q-1.86,4.92-7.4,8.89a31.85,31.85,0,0,1-11.26,5.3,24.68,24.68,0,0,1-2.57.46A14.21,14.21,0,0,1,895.4,517.84ZM919,471.73a6,6,0,0,0-1.3.17q-2.92.68-5.81,4.58A46.45,46.45,0,0,0,905.93,488a52.24,52.24,0,0,0-3,12.33,54,54,0,0,0,9.33-10.54,57.53,57.53,0,0,0,6.36-11q1.78-4.41,1.42-5.95A1.43,1.43,0,0,0,919,471.73Z" transform="translate(-755 -441.03)"/><path class="cls-1" d="M977.79,452a28.46,28.46,0,0,1,5.71,11.8q1.37,5.87.57,17.21t-10.32,21.66q-4.77,4.83-9.1,5.85-6.72,1.57-12.37-6,12.26-6.79,15.66-18.83a48.13,48.13,0,0,0,.91-23.61c-.26-1.11-.79-1.71-1.61-1.8a1.87,1.87,0,0,0-.63,0,2,2,0,0,0-1.24,1A325.08,325.08,0,0,0,952,493q-1.12,16.5-1.88,33.14t0,21.1q-13.17,1.05-15.74-9.95a30,30,0,0,1-.54-8.65l4.64-74.55a30.06,30.06,0,0,1,10.61,2.72q3.27,1.7,4.31,6.15a17.79,17.79,0,0,1,.41,2.65l2.48-8.66q2.73-7.25,8.71-9l.54-.12Q971.38,446.49,977.79,452Z" transform="translate(-755 -441.03)"/><path class="cls-1" d="M977.49,523.44a12.82,12.82,0,0,0-5.07,6.11,11.32,11.32,0,0,0-.68,7.19c.1.3.22.46.38.47a1.43,1.43,0,0,0,.33,0,.63.63,0,0,0,.32-.31,100.34,100.34,0,0,0,3.43-11.18,6.13,6.13,0,0,1,2.89.91,3,3,0,0,1,1.15,1.46,3.88,3.88,0,0,1,.13,1.49l-.21,8.38-1.44-.34-.26-.09a4.07,4.07,0,0,1-1.31-.56,1.88,1.88,0,0,1-.74-1.05,3.58,3.58,0,0,1-.09-.35,9.51,9.51,0,0,1,.16-3l-1,4.8c-.41,1.44-.92,2.27-1.52,2.5l-1,.35a4.05,4.05,0,0,1-3.64-.92,7.61,7.61,0,0,1-1.66-2.89,11.65,11.65,0,0,1-.42-4.29,13.39,13.39,0,0,1,2.88-7.87,6.91,6.91,0,0,1,3-2,6.11,6.11,0,0,1,.74-.17A3.78,3.78,0,0,1,977.49,523.44Z" transform="translate(-755 -441.03)"/><path class="cls-1" d="M987.51,535.63a5.48,5.48,0,0,1-3.43-.56,3.67,3.67,0,0,1-1.62-2,6.4,6.4,0,0,1-.27-1.86l0-11.86a6.43,6.43,0,0,1,3.31.64,3,3,0,0,1,1.25,1.54,8.68,8.68,0,0,1,.23,3l1.46-6.28a2,2,0,0,1,1.26-1.3,2.19,2.19,0,0,1,.87-.08,6.33,6.33,0,0,1,3.2,1.2,2.74,2.74,0,0,1,.79,1.3,7.75,7.75,0,0,1,.28,1.63,40,40,0,0,1,0,4.77c-.07,1.44-.1,2.76-.07,4a10.54,10.54,0,0,0,.39,2.93q.08.21.15.39a5.82,5.82,0,0,1-3.78-.55,3.6,3.6,0,0,1-1.52-1.88,6.84,6.84,0,0,1-.22-2.5l.26-8.36-2.77,10.57a16.08,16.08,0,0,1,.07,1.88c0,.61,0,1.23,0,1.86A14.23,14.23,0,0,0,987.51,535.63Z" transform="translate(-755 -441.03)"/><path class="cls-1" d="M1005,500.24q3.81-.58,4.8,2.57a8.66,8.66,0,0,1,.35,2.5l.24,23.15a9,9,0,0,1-3.12-.57,2.44,2.44,0,0,1-1.38-1.68,4.72,4.72,0,0,1-.18-.76l-.54,2.56a3.9,3.9,0,0,1-2.35,2.8l-.16.05a4,4,0,0,1-3.63-.92,8.19,8.19,0,0,1-1.92-3.31,18.57,18.57,0,0,1-.55-5,10.25,10.25,0,0,1,2.54-6.53,5.7,5.7,0,0,1,2.52-1.9q1.92-.6,3.72,1.48a9,9,0,0,0-4.14,5.82,14.09,14.09,0,0,0,.26,6.9c.09.3.26.46.5.47a.64.64,0,0,0,.2,0,.52.52,0,0,0,.32-.3,92.75,92.75,0,0,0,3.17-10.15q0-3.31-.1-7c0-2.47-.11-4.65-.2-6.55A21,21,0,0,0,1005,500.24Z" transform="translate(-755 -441.03)"/></g></svg>