<svg id="Capa_3" data-name="Capa 3" xmlns="http://www.w3.org/2000/svg" viewBox="0 0 338.21 348.44"><defs><style>.cls-1{fill:none;}.cls-2{fill:#fff;}.cls-3{fill:#eb1d36;}.cls-4{fill:#a39cfe;}</style></defs><circle class="cls-1" cx="169.1" cy="169.1" r="169"/><circle class="cls-2" cx="169.1" cy="169.1" r="161.5"/><path class="cls-2" d="M169.1,15.1A154,154,0,1,1,60.2,60.2,153.94,153.94,0,0,1,169.1,15.1m0-15C75.8.1.1,75.8.1,169.1s75.7,169,169,169,169-75.7,169-169A169,169,0,0,0,169.1.1Z" transform="translate(0 0)"/><path class="cls-3" d="M213.2,258.5c-3.9-11.8-10.3-22.3-18-32.3,1.5-.2,1.9.8,2.6,1.4a124,124,0,0,1,17,18.5c1.5,2.1,2.7,2.5,5.2,1.4,24.7-10.6,38.9-32.5,38.1-59.5a54.34,54.34,0,0,0-41.3-51.8c-1.5-.4-3.3-.3-4.9-1.6a67.9,67.9,0,0,0,14.4-5.5c20.5-11,27-33.2,15.9-53.6-6.6-12.1-17-19.8-29.7-24.2-36.2-12.9-70.6-7.7-103,11.8-16.1,9.7-27.8,23.4-33.3,41.8-.9,3.1-1.9,6.2-1.7,10.4,4.8-9.6,9.2-18.6,17.1-25.1a2.3,2.3,0,0,1-.4,1.4C85.7,101.6,81,112,81,123.9c0,1.6-.8,2.1-2,2.6-3.8,1.6-7.5,1-11.3-1.6,2.4,5,4.8,7.4,9.8,8.5,3.3.7,2.9,2,1.8,4.2-3.2,6.5-8.5,11.1-14.2,15.3a156,156,0,0,1-19.4,12c-2.5,1.4-5,3.2-5,6.4s2.7,4.5,5.1,5.8,4.7,2.1,6.9,3.5c7.4,4.5,8,9.6,1.4,15.2-2.7,2.3-2.2,3.9-.5,6.1.8,1,1.8,2,2.8,3.1a14.2,14.2,0,0,0-4.1,3.2c-1.4,1.7-2.8,3.1.2,4.9,2,1.2,2.8,3.7,3.3,6,1.1,4.7.4,9.3-.4,13.9-1.5,8.1,2.3,14.1,10.3,16.1a45.74,45.74,0,0,0,17.3.3c15.5-2.3,31-3.7,46.8-1.8,24.2,2.9,37.9,15.8,40.3,38.3.4.2.8.5,1.2.7h0c2.9-16,0-31-7.5-45.4-5-9.5-11.3-18.2-17.9-26.6-10.8-13.6-22.4-26.5-31.7-41.3C105.3,159.1,98.7,144,97.3,127c-1.1-4.6-.4-9.3-.4-13.9l.2.7c0-.1.1-.2.2,0s.1.1.1.1c0,.3-.1.6-.1.8A19.38,19.38,0,0,1,98,121h0c3.5,22.8,14.1,42.3,28.4,60,12,14.9,25.7,28.2,38.3,42.6,12.2,13.8,22.3,28.8,26.1,47.3,2.5,11.8,2.6,23.3-3.5,34.1-9.8,17.1-32.1,25.1-52.6,18.8-10.3-3.1-18.8-8.7-23.4-18.8-4.8-10.7,0-21.9,11-26.3,10.7-4.3,21.3.6,25.3,11.6.5,1.2.8,2.5,1.4,4.2,1.6-13.9-6.6-25-19.5-27-13.2-2-27.8,5.3-34.2,17.1-8.3,15.3-3.5,36.6,11.1,49.2,14.3,12.3,31.4,15.4,49.4,14.5,20.2-1,37.3-9.1,49.5-25.6C219.7,302.8,220.7,281.1,213.2,258.5ZM167.3,128.2c2.5-13,5-26.1,7.5-39.1,1.7-9.1,3.5-18.1,5.3-27.1.3-1.3.2-2.6,2.3-2.4,15.5,1.1,32,10.4,35.8,26.9a57.28,57.28,0,0,1,.9,5.9c-.4,13-6.6,21.8-16.5,28.3-10.2,6.8-21.8,9.2-33.9,10.2C166.1,131.1,167.1,129.4,167.3,128.2Zm21.3,87a3.41,3.41,0,0,1-3.7-.8c-16.5-15.3-34.5-29.1-49.7-45.9-12.6-13.8-22.7-29.2-26.7-47.8-5.3-25,4-43.8,27.1-54.8,2.7-1.3,5.4-2.3,8.9-3.8-4.2,18.5-8.2,36.1-12.2,53.7-2.2,9.7-4.5,19.4-6.7,29.1a5.19,5.19,0,0,0,.8,4.5c7.9,12.1,17.6,22.5,29.9,30.2,9.5,6,19.9,8.7,31,5.7,10-2.7,15.9-11.2,14.6-20.2-.7-5.3-3.7-9-8.1-11.7a33,33,0,0,0-17.4-4.2c1.7.6,2.7,1,3.7,1.4a19.44,19.44,0,0,1,8.8,5.8,10.77,10.77,0,0,1-1.1,15.2,10,10,0,0,1-4.3,2.3c-6.4,2-18.5-2.5-22.3-8a3.11,3.11,0,0,1-.2-2.8l3.3-17.4c.3-1.4.5-2.4,2.4-2.6,15.3-1.1,29.8.9,42.5,10.3,18.2,13.6,18.5,37.3.7,51.4a60.42,60.42,0,0,1-21.3,10.4Z" transform="translate(0 0)"/><path class="cls-3" d="M188.1,1.1C103.1-8.6,24.3,46.9,4.5,131.3c-18.7,80,23.7,150.6,74.1,180-3.3-20.5,3.3-37.2,20.1-49.8-13.2,4.3-23.1,12.3-29.4,24.7-47.5-39-69.2-110.1-43-174.9A154.14,154.14,0,0,1,197,17.6C266.3,30,319.7,89.3,323.2,161.8c3.3,69.2-39.3,123.7-84.5,144.7,1.8-16.1-2.2-30.8-10.3-44.6,5.6,25.2,2.3,48.7-13.5,69.8,62.6-15.8,124.1-77.8,123.3-163.6C337.4,81.7,273.3,10.9,188.1,1.1Z" transform="translate(0 0)"/><path class="cls-4" d="M97.3,127.1c.7-2-.6-4.2.7-6.1a19.17,19.17,0,0,1-.7-2.9C97.2,121.1,96.8,124.1,97.3,127.1Z" transform="translate(0 0)"/><path class="cls-4" d="M97.1,114a4.87,4.87,0,0,1,.1,1.2,1.27,1.27,0,0,1,.1-.6c.1-.2-.2-.6-.2-.8Z" transform="translate(0 0)"/><path class="cls-4" d="M170,285.8v4.5a4.42,4.42,0,0,0,1.2-3.8h0" transform="translate(0 0)"/></svg>