<svg id="Capa_1" data-name="Capa 1" xmlns="http://www.w3.org/2000/svg" viewBox="0 0 500 500"><defs><style>.cls-1{fill:#f9e7d5;}.cls-2{fill:#e93e8f;}.cls-3{fill:#182638;}.cls-4{fill:#192638;}</style></defs><rect class="cls-1" width="500" height="500" rx="125"/><path class="cls-2" d="M296.34,308.64l0,1.81a14.71,14.71,0,0,1,1.62,6.55,106.94,106.94,0,0,0,23.94,62.21c1.5,1.87,3.51,3.52,3,6.35A91.54,91.54,0,0,1,293.52,394c-32.95,3.15-63.15-3.14-87.41-27.53-15.27-15.35-22.32-34.3-23-55.76-.09-2.6-.11-5.2-.16-7.8-1.67-2.07-1.54-4.54-1.54-7,0-14.12.17-28.24-.09-42.35a18.64,18.64,0,0,1,6.07-14.68c8.37-8.12,7.95-6.67,0-14.8-1.88-2-4.31-3.59-4.43-6.71a80.87,80.87,0,0,1-38.39-11.09c-3.33-2-4.57-4.2-4.57-8.13,0-14.81-.19-29.56,5.94-43.53,11.84-27,32.22-43.83,61.3-47.61,50.15-6.53,84.78,30.8,88.24,69.54.87,9.75.44,19.49.56,29.23.17,13.16.18,26.32.26,39.48,2,1.9,1.92,4.38,1.92,6.82q.06,24.84,0,49.68C298.25,304.25,298.19,306.7,296.34,308.64Z"/><path class="cls-3" d="M296.34,308.64q0-31.67,0-63.34h78.51C355.52,275.59,329.86,296.93,296.34,308.64Z"/><path class="cls-3" d="M324.83,385.56c-11.45-13.6-20.43-28.51-24.95-45.92-2.49-9.6-4-19.26-3.58-29.19,2.77,3.35,5.36,6.88,8.35,10,20.47,21.52,51.09,24.43,75.63,7.29a19.57,19.57,0,0,1,2-1C370.16,354,351.57,373.76,324.83,385.56Z"/><path class="cls-3" d="M183,217.41c4.16,4.05,8.27,8.17,12.51,12.15,1.53,1.43,1.06,2.36-.21,3.51a42.69,42.69,0,0,1-3.43,3.43c-7.57,5.41-9.46,12.61-9,21.76.76,14.85.12,29.77.07,44.66-27.21-12.44-48.16-31.87-64.66-57.66h65c-4.63-4.55-8.23-8.2-12-11.7-1.7-1.6-2.24-2.69-.16-4.57C175.24,225.29,179.05,221.29,183,217.41Z"/><path class="cls-4" d="M243.6,204.18a11.83,11.83,0,0,1-11.85,12.07,12,12,0,1,1-.13-24A11.77,11.77,0,0,1,243.6,204.18Z"/></svg>