<svg id="Capa_2" data-name="Capa 2" xmlns="http://www.w3.org/2000/svg" xmlns:xlink="http://www.w3.org/1999/xlink" viewBox="0 0 500 500"><defs><style>.cls-1{fill:url(#Degradado_sin_nombre_13);}.cls-2{fill:#48b8ab;}.cls-3{fill:#fdfcfe;}.cls-4{fill:#6d2c87;}</style><linearGradient id="Degradado_sin_nombre_13" x1="36.61" y1="463.39" x2="463.39" y2="36.61" gradientUnits="userSpaceOnUse"><stop offset="0" stop-color="#5a267a"/><stop offset="1" stop-color="#76398e"/></linearGradient></defs><rect class="cls-1" width="500" height="500" rx="125"/><path class="cls-2" d="M340,111.58c-4.66-34.41-34.65-58.66-69.13-58.79-17.94.52-35.19,6.63-48.76,21.49-10,11-17,23.7-18.74,38.41-2.23,19.2,2.54,36.9,15.44,51.8A12.67,12.67,0,0,1,222,174.7c-.55,6.46-2.45,12.75-2.3,19.29.13,5.41,1.83,6.55,6.51,3.73,5.41-3.26,10.59-6.91,15.8-10.49a9.17,9.17,0,0,1,8.66-1.44,65.94,65.94,0,0,0,35.5,1.72C321.58,179.89,344.69,146,340,111.58ZM277,141.38a16,16,0,0,1-14.06,12.89c-1.77.23-3.57.23-5.35.34-12.17.08-20.32-6.51-21.44-17.33-.31-3-.17-5.75,3.51-6.3s4.57,2.23,5.16,5.08c1.94,9.25,11.37,13.67,19.81,9.3,4.05-2.09,4.48-8.56.51-12.06a31.48,31.48,0,0,0-7-4.26c-3.32-1.64-6.86-2.85-10.19-4.5-7.8-3.87-11.2-9-10.43-15.38.83-6.94,5.57-11.26,14.29-13,11.67-2.38,22.58,4.36,23.85,14.73.36,2.9.48,5.73-3.22,6.46s-4.75-1.8-5.43-4.74A11.53,11.53,0,0,0,251,104.19c-6.06,2.44-6.89,8-1.82,12.1,2.71,2.18,6,3.18,9.15,4.38a57.5,57.5,0,0,1,10.95,5.2C275.41,129.81,278.28,135.65,277,141.38ZM315.46,101c-.29.64-.66,1.71-1.2,2.69q-12.6,23.24-25.21,46.48c-1.05,2-2.21,3.71-4.65,3.69-3.19,0-4.83-3.51-3.06-6.86,4.69-8.86,9.54-17.64,14.32-26.46q5.89-10.87,11.77-21.75c1.2-2.22,2.89-3.58,5.5-2.86C315.23,96.54,315.7,98.4,315.46,101Z"/><path class="cls-3" d="M171.92,315.69c-3.36,3.06-6.54,6.32-10.47,8.71-12.37,7.5-24.57,1.36-25.33-13-.62-11.75,3.24-22.74,6.69-33.74,1.51-4.79,3.3-9.5,5.14-14.18a34.21,34.21,0,0,0,2.45-12.33c0-3.54-.77-8,4.93-8.33,6-.34,10.75,3,11.51,8.2a20.82,20.82,0,0,1-.87,8.17c-2.84,11.16-7.48,21.82-9.4,33.23-.66,4-2.16,8.7,2.3,11,4.86,2.54,8.18-1.48,11.17-4.66,5-5.32,7.62-12,10.33-18.64,4.87-11.87,8.68-24.11,12.63-36.3,2.47-7.63,7.78-12.25,15.49-14,6.1-1.38,8.66.87,7.11,6.83-4.89,18.68-10.12,37.27-15.28,55.87-4.63,16.69-9.36,33.35-14.24,50.71,8.69-1.56,16.77-3.15,24.9-4.46,18.44-3,36.89-5.9,55.38-8.59,3.27-.47,4.85-1.42,5.27-4.81.61-4.8,1.72-9.53,2.66-14.54-17,7.26-21.34,6.38-25.1-5.07-1.69,2.55-3.11,5.07-4.9,7.29-4.94,6.17-11.12,9.21-19.26,7.39s-11.88-7.42-13.4-15c-3.58-17.79.46-34.51,7.48-50.75,4-9.18,9.1-17.57,16.83-24.18,6.82-5.82,14-6.72,21.82-2.26,1.68.95,2.85,1.84,4.35-.79,3.06-5.36,5.91-6,11.78-3.78,5.15,2,4.67,6.22,3.83,10.25-2.55,12.18-5.38,24.31-8,36.47-1.35,6.19-2.73,12.4-2.46,18.8.21,4.88,1.83,5.76,6.15,3.4,3.1-1.69,5.29-3.93,5.9-7.78C281,274.19,282.57,263.49,285,253c2.24-9.6,3.84-19.32,6.07-28.92,1-4.48,4.16-4.84,7.88-4.22,6.67,1.12,7.36,1.9,7.11,9.17,2.15-2.41,3.85-4.35,5.58-6.26a19.09,19.09,0,0,1,9.24-6c9.19-2.47,15.61.78,18.8,9.73,2.73,7.66,3.15,15.64,2.43,23.6a121.58,121.58,0,0,1-10.58,39.82,55.35,55.35,0,0,1-8.14,12.62c-7.77,9.26-19.41,10.59-29.17,3.4-1.17-.85-2.27-1.8-4.12-3.28-1.16,7.84-2.24,15.11-3.31,22.38-.36,2.48,1.27,2.06,2.75,1.87,13.38-1.71,26.74-3.61,40.14-5.07,13.86-1.5,27.64-3.91,41.67-3.49,3.67.11,7.11.73,9.46,3.87,3.73,5,1.73,11.18-4.33,12.94-7.84,2.26-16,2.67-24.07,3.61-19,2.23-38.09,3.88-56.86,7.83a16.7,16.7,0,0,1-2.89-.14c-7.89.12-8.89.8-11.5,8.26a12.6,12.6,0,0,1-2.36,4.71c-2.2,2.35-4.64,4.19-8.12,3s-4.46-4.15-4-7c.85-5.82-2.27-5.35-6.12-4.69-26.1,4.45-52.08,9.45-77.87,15.46-3.07.72-4.48,2.23-5.45,5.18-5.91,18.1-12.61,35.86-24.11,51.34-5.26,7.08-10.94,13.78-18.47,18.57-7.12,4.53-14.83,6.75-23.22,4.49-9.92-2.67-18-13.23-15.58-26.76,3.91-22.18,16.21-39,33.87-52.25,9-6.76,18.5-12.64,29.27-16.23,2.25-.75,3.94-1.9,4.72-4.41,3-9.77,6.2-19.48,9.32-29.22a2,2,0,0,0,.26-2.21ZM325.29,248.6a53.13,53.13,0,0,0-.9-7.74c-1.54-6.28-5.32-7.42-10.31-3.32-4.41,3.63-6.88,8.54-8.86,13.75-4.34,11.41-6.85,23.32-9.44,35.19-1.06,4.87.67,6.92,5.77,6.83,6.6-.11,10.78-4,13.71-9.43C321,273.17,324.17,261.67,325.29,248.6ZM228.22,283c0,1.3-.1,2.61,0,3.9.55,6.38,3.38,11.08,7.35,11.42,5.45.46,7.52-3.93,9.37-7.82,6.3-13.25,10.1-27.35,13.25-41.6,1.18-5.34-2.36-8-7.57-6.17a25.69,25.69,0,0,0-12.75,10.14A56.22,56.22,0,0,0,228.22,283Zm-73.37,91.46c-18.67,8.26-32.44,21.32-39.78,40.49-1.49,3.87-3.1,8.75,1.31,11.57,4.19,2.69,7.79-.79,10.66-3.52C141.09,409.64,148.51,392.42,154.85,374.43Z"/><path class="cls-3" d="M343.3,276.87c2.35-25.56,9.83-49.29,31.65-66.3,5.28-4.12,16.67-4.33,22.8-.39,5.74,3.68,7.9,9.88,6.3,17.79-4.14,20.52-16.78,32.69-36.91,37.31-2.24.51-3.42,1.31-4,3.39a27.57,27.57,0,0,0-1.33,8.13c.16,8.51,4.87,11.74,12.87,8.56,6.65-2.65,11.85-7.28,16.48-12.62,4.43-5.1,6.55-4.74,9.14,1.6,2.5,6.13,2.94,8.05-3.71,14.57A78.48,78.48,0,0,1,375.05,304c-16.27,7.7-29.7-2-30.83-17.7C344,283.39,343.66,280.49,343.3,276.87Zm24-27c10.53-3.65,18.27-8.27,21.19-18.43.77-2.66,1-5.31-1.7-6.91s-5,0-6.87,1.9C373.71,232.66,370.25,240.33,367.3,249.92Z"/><path class="cls-4" d="M155.2,374.43c-6.35,18-13.77,35.21-27.81,48.54-2.87,2.73-6.48,6.21-10.67,3.52-4.4-2.82-2.79-7.7-1.31-11.57C122.75,395.75,136.53,382.69,155.2,374.43Z"/><path class="cls-4" d="M172.27,315.69l1.36-1.08c.51.81.15,1.51-.26,2.21C173,316.45,172.63,316.07,172.27,315.69Z"/></svg>